G04 #@! TF.GenerationSoftware,KiCad,Pcbnew,(6.0.7)*
G04 #@! TF.CreationDate,2023-03-12T22:24:00+09:00*
G04 #@! TF.ProjectId,flowing_dongle,666c6f77-696e-4675-9f64-6f6e676c652e,rev?*
G04 #@! TF.SameCoordinates,Original*
G04 #@! TF.FileFunction,Legend,Top*
G04 #@! TF.FilePolarity,Positive*
%FSLAX46Y46*%
G04 Gerber Fmt 4.6, Leading zero omitted, Abs format (unit mm)*
G04 Created by KiCad (PCBNEW (6.0.7)) date 2023-03-12 22:24:00*
%MOMM*%
%LPD*%
G01*
G04 APERTURE LIST*
%ADD10C,0.150000*%
%ADD11C,0.120000*%
%ADD12C,0.127000*%
%ADD13C,0.200000*%
G04 APERTURE END LIST*
D10*
X99357142Y-83666666D02*
X99404761Y-83714285D01*
X99452380Y-83857142D01*
X99452380Y-83952380D01*
X99404761Y-84095238D01*
X99309523Y-84190476D01*
X99214285Y-84238095D01*
X99023809Y-84285714D01*
X98880952Y-84285714D01*
X98690476Y-84238095D01*
X98595238Y-84190476D01*
X98500000Y-84095238D01*
X98452380Y-83952380D01*
X98452380Y-83857142D01*
X98500000Y-83714285D01*
X98547619Y-83666666D01*
X98547619Y-83285714D02*
X98500000Y-83238095D01*
X98452380Y-83142857D01*
X98452380Y-82904761D01*
X98500000Y-82809523D01*
X98547619Y-82761904D01*
X98642857Y-82714285D01*
X98738095Y-82714285D01*
X98880952Y-82761904D01*
X99452380Y-83333333D01*
X99452380Y-82714285D01*
X101452380Y-104166666D02*
X100976190Y-104500000D01*
X101452380Y-104738095D02*
X100452380Y-104738095D01*
X100452380Y-104357142D01*
X100500000Y-104261904D01*
X100547619Y-104214285D01*
X100642857Y-104166666D01*
X100785714Y-104166666D01*
X100880952Y-104214285D01*
X100928571Y-104261904D01*
X100976190Y-104357142D01*
X100976190Y-104738095D01*
X100785714Y-103309523D02*
X101452380Y-103309523D01*
X100404761Y-103547619D02*
X101119047Y-103785714D01*
X101119047Y-103166666D01*
X103952380Y-89166666D02*
X103476190Y-89500000D01*
X103952380Y-89738095D02*
X102952380Y-89738095D01*
X102952380Y-89357142D01*
X103000000Y-89261904D01*
X103047619Y-89214285D01*
X103142857Y-89166666D01*
X103285714Y-89166666D01*
X103380952Y-89214285D01*
X103428571Y-89261904D01*
X103476190Y-89357142D01*
X103476190Y-89738095D01*
X103952380Y-88214285D02*
X103952380Y-88785714D01*
X103952380Y-88500000D02*
X102952380Y-88500000D01*
X103095238Y-88595238D01*
X103190476Y-88690476D01*
X103238095Y-88785714D01*
X74166666Y-163452380D02*
X73833333Y-162976190D01*
X73595238Y-163452380D02*
X73595238Y-162452380D01*
X73976190Y-162452380D01*
X74071428Y-162500000D01*
X74119047Y-162547619D01*
X74166666Y-162642857D01*
X74166666Y-162785714D01*
X74119047Y-162880952D01*
X74071428Y-162928571D01*
X73976190Y-162976190D01*
X73595238Y-162976190D01*
X74595238Y-162928571D02*
X74928571Y-162928571D01*
X75071428Y-163452380D02*
X74595238Y-163452380D01*
X74595238Y-162452380D01*
X75071428Y-162452380D01*
X75833333Y-162928571D02*
X75500000Y-162928571D01*
X75500000Y-163452380D02*
X75500000Y-162452380D01*
X75976190Y-162452380D01*
X76500000Y-162452380D02*
X76500000Y-162690476D01*
X76261904Y-162595238D02*
X76500000Y-162690476D01*
X76738095Y-162595238D01*
X76357142Y-162880952D02*
X76500000Y-162690476D01*
X76642857Y-162880952D01*
X77261904Y-162452380D02*
X77261904Y-162690476D01*
X77023809Y-162595238D02*
X77261904Y-162690476D01*
X77500000Y-162595238D01*
X77119047Y-162880952D02*
X77261904Y-162690476D01*
X77404761Y-162880952D01*
X97452380Y-93833333D02*
X98166666Y-93833333D01*
X98309523Y-93880952D01*
X98404761Y-93976190D01*
X98452380Y-94119047D01*
X98452380Y-94214285D01*
X98452380Y-92833333D02*
X98452380Y-93404761D01*
X98452380Y-93119047D02*
X97452380Y-93119047D01*
X97595238Y-93214285D01*
X97690476Y-93309523D01*
X97738095Y-93404761D01*
X99357142Y-104166666D02*
X99404761Y-104214285D01*
X99452380Y-104357142D01*
X99452380Y-104452380D01*
X99404761Y-104595238D01*
X99309523Y-104690476D01*
X99214285Y-104738095D01*
X99023809Y-104785714D01*
X98880952Y-104785714D01*
X98690476Y-104738095D01*
X98595238Y-104690476D01*
X98500000Y-104595238D01*
X98452380Y-104452380D01*
X98452380Y-104357142D01*
X98500000Y-104214285D01*
X98547619Y-104166666D01*
X99452380Y-103214285D02*
X99452380Y-103785714D01*
X99452380Y-103500000D02*
X98452380Y-103500000D01*
X98595238Y-103595238D01*
X98690476Y-103690476D01*
X98738095Y-103785714D01*
X151238095Y-92952380D02*
X151238095Y-93761904D01*
X151285714Y-93857142D01*
X151333333Y-93904761D01*
X151428571Y-93952380D01*
X151619047Y-93952380D01*
X151714285Y-93904761D01*
X151761904Y-93857142D01*
X151809523Y-93761904D01*
X151809523Y-92952380D01*
X152714285Y-93285714D02*
X152714285Y-93952380D01*
X152476190Y-92904761D02*
X152238095Y-93619047D01*
X152857142Y-93619047D01*
X88166666Y-170452380D02*
X87833333Y-169976190D01*
X87595238Y-170452380D02*
X87595238Y-169452380D01*
X87976190Y-169452380D01*
X88071428Y-169500000D01*
X88119047Y-169547619D01*
X88166666Y-169642857D01*
X88166666Y-169785714D01*
X88119047Y-169880952D01*
X88071428Y-169928571D01*
X87976190Y-169976190D01*
X87595238Y-169976190D01*
X88595238Y-169928571D02*
X88928571Y-169928571D01*
X89071428Y-170452380D02*
X88595238Y-170452380D01*
X88595238Y-169452380D01*
X89071428Y-169452380D01*
X89833333Y-169928571D02*
X89500000Y-169928571D01*
X89500000Y-170452380D02*
X89500000Y-169452380D01*
X89976190Y-169452380D01*
X90500000Y-169452380D02*
X90500000Y-169690476D01*
X90261904Y-169595238D02*
X90500000Y-169690476D01*
X90738095Y-169595238D01*
X90357142Y-169880952D02*
X90500000Y-169690476D01*
X90642857Y-169880952D01*
X91261904Y-169452380D02*
X91261904Y-169690476D01*
X91023809Y-169595238D02*
X91261904Y-169690476D01*
X91500000Y-169595238D01*
X91119047Y-169880952D02*
X91261904Y-169690476D01*
X91404761Y-169880952D01*
X170238095Y-92952380D02*
X170238095Y-93761904D01*
X170285714Y-93857142D01*
X170333333Y-93904761D01*
X170428571Y-93952380D01*
X170619047Y-93952380D01*
X170714285Y-93904761D01*
X170761904Y-93857142D01*
X170809523Y-93761904D01*
X170809523Y-92952380D01*
X171761904Y-92952380D02*
X171285714Y-92952380D01*
X171238095Y-93428571D01*
X171285714Y-93380952D01*
X171380952Y-93333333D01*
X171619047Y-93333333D01*
X171714285Y-93380952D01*
X171761904Y-93428571D01*
X171809523Y-93523809D01*
X171809523Y-93761904D01*
X171761904Y-93857142D01*
X171714285Y-93904761D01*
X171619047Y-93952380D01*
X171380952Y-93952380D01*
X171285714Y-93904761D01*
X171238095Y-93857142D01*
X109952380Y-82261904D02*
X110761904Y-82261904D01*
X110857142Y-82214285D01*
X110904761Y-82166666D01*
X110952380Y-82071428D01*
X110952380Y-81880952D01*
X110904761Y-81785714D01*
X110857142Y-81738095D01*
X110761904Y-81690476D01*
X109952380Y-81690476D01*
X110952380Y-80690476D02*
X110952380Y-81261904D01*
X110952380Y-80976190D02*
X109952380Y-80976190D01*
X110095238Y-81071428D01*
X110190476Y-81166666D01*
X110238095Y-81261904D01*
X100166666Y-171452380D02*
X99833333Y-170976190D01*
X99595238Y-171452380D02*
X99595238Y-170452380D01*
X99976190Y-170452380D01*
X100071428Y-170500000D01*
X100119047Y-170547619D01*
X100166666Y-170642857D01*
X100166666Y-170785714D01*
X100119047Y-170880952D01*
X100071428Y-170928571D01*
X99976190Y-170976190D01*
X99595238Y-170976190D01*
X100595238Y-170928571D02*
X100928571Y-170928571D01*
X101071428Y-171452380D02*
X100595238Y-171452380D01*
X100595238Y-170452380D01*
X101071428Y-170452380D01*
X101833333Y-170928571D02*
X101500000Y-170928571D01*
X101500000Y-171452380D02*
X101500000Y-170452380D01*
X101976190Y-170452380D01*
X102500000Y-170452380D02*
X102500000Y-170690476D01*
X102261904Y-170595238D02*
X102500000Y-170690476D01*
X102738095Y-170595238D01*
X102357142Y-170880952D02*
X102500000Y-170690476D01*
X102642857Y-170880952D01*
X103261904Y-170452380D02*
X103261904Y-170690476D01*
X103023809Y-170595238D02*
X103261904Y-170690476D01*
X103500000Y-170595238D01*
X103119047Y-170880952D02*
X103261904Y-170690476D01*
X103404761Y-170880952D01*
X132238095Y-92952380D02*
X132238095Y-93761904D01*
X132285714Y-93857142D01*
X132333333Y-93904761D01*
X132428571Y-93952380D01*
X132619047Y-93952380D01*
X132714285Y-93904761D01*
X132761904Y-93857142D01*
X132809523Y-93761904D01*
X132809523Y-92952380D01*
X133190476Y-92952380D02*
X133809523Y-92952380D01*
X133476190Y-93333333D01*
X133619047Y-93333333D01*
X133714285Y-93380952D01*
X133761904Y-93428571D01*
X133809523Y-93523809D01*
X133809523Y-93761904D01*
X133761904Y-93857142D01*
X133714285Y-93904761D01*
X133619047Y-93952380D01*
X133333333Y-93952380D01*
X133238095Y-93904761D01*
X133190476Y-93857142D01*
X113238095Y-92952380D02*
X113238095Y-93761904D01*
X113285714Y-93857142D01*
X113333333Y-93904761D01*
X113428571Y-93952380D01*
X113619047Y-93952380D01*
X113714285Y-93904761D01*
X113761904Y-93857142D01*
X113809523Y-93761904D01*
X113809523Y-92952380D01*
X114238095Y-93047619D02*
X114285714Y-93000000D01*
X114380952Y-92952380D01*
X114619047Y-92952380D01*
X114714285Y-93000000D01*
X114761904Y-93047619D01*
X114809523Y-93142857D01*
X114809523Y-93238095D01*
X114761904Y-93380952D01*
X114190476Y-93952380D01*
X114809523Y-93952380D01*
X103452380Y-104738095D02*
X102452380Y-104738095D01*
X102452380Y-104500000D01*
X102500000Y-104357142D01*
X102595238Y-104261904D01*
X102690476Y-104214285D01*
X102880952Y-104166666D01*
X103023809Y-104166666D01*
X103214285Y-104214285D01*
X103309523Y-104261904D01*
X103404761Y-104357142D01*
X103452380Y-104500000D01*
X103452380Y-104738095D01*
X103452380Y-103214285D02*
X103452380Y-103785714D01*
X103452380Y-103500000D02*
X102452380Y-103500000D01*
X102595238Y-103595238D01*
X102690476Y-103690476D01*
X102738095Y-103785714D01*
X97952380Y-83666666D02*
X97476190Y-84000000D01*
X97952380Y-84238095D02*
X96952380Y-84238095D01*
X96952380Y-83857142D01*
X97000000Y-83761904D01*
X97047619Y-83714285D01*
X97142857Y-83666666D01*
X97285714Y-83666666D01*
X97380952Y-83714285D01*
X97428571Y-83761904D01*
X97476190Y-83857142D01*
X97476190Y-84238095D01*
X96952380Y-83333333D02*
X96952380Y-82714285D01*
X97333333Y-83047619D01*
X97333333Y-82904761D01*
X97380952Y-82809523D01*
X97428571Y-82761904D01*
X97523809Y-82714285D01*
X97761904Y-82714285D01*
X97857142Y-82761904D01*
X97904761Y-82809523D01*
X97952380Y-82904761D01*
X97952380Y-83190476D01*
X97904761Y-83285714D01*
X97857142Y-83333333D01*
X114166666Y-167452380D02*
X113833333Y-166976190D01*
X113595238Y-167452380D02*
X113595238Y-166452380D01*
X113976190Y-166452380D01*
X114071428Y-166500000D01*
X114119047Y-166547619D01*
X114166666Y-166642857D01*
X114166666Y-166785714D01*
X114119047Y-166880952D01*
X114071428Y-166928571D01*
X113976190Y-166976190D01*
X113595238Y-166976190D01*
X114595238Y-166928571D02*
X114928571Y-166928571D01*
X115071428Y-167452380D02*
X114595238Y-167452380D01*
X114595238Y-166452380D01*
X115071428Y-166452380D01*
X115833333Y-166928571D02*
X115500000Y-166928571D01*
X115500000Y-167452380D02*
X115500000Y-166452380D01*
X115976190Y-166452380D01*
X116500000Y-166452380D02*
X116500000Y-166690476D01*
X116261904Y-166595238D02*
X116500000Y-166690476D01*
X116738095Y-166595238D01*
X116357142Y-166880952D02*
X116500000Y-166690476D01*
X116642857Y-166880952D01*
X117261904Y-166452380D02*
X117261904Y-166690476D01*
X117023809Y-166595238D02*
X117261904Y-166690476D01*
X117500000Y-166595238D01*
X117119047Y-166880952D02*
X117261904Y-166690476D01*
X117404761Y-166880952D01*
X97452380Y-104166666D02*
X96976190Y-104500000D01*
X97452380Y-104738095D02*
X96452380Y-104738095D01*
X96452380Y-104357142D01*
X96500000Y-104261904D01*
X96547619Y-104214285D01*
X96642857Y-104166666D01*
X96785714Y-104166666D01*
X96880952Y-104214285D01*
X96928571Y-104261904D01*
X96976190Y-104357142D01*
X96976190Y-104738095D01*
X96547619Y-103785714D02*
X96500000Y-103738095D01*
X96452380Y-103642857D01*
X96452380Y-103404761D01*
X96500000Y-103309523D01*
X96547619Y-103261904D01*
X96642857Y-103214285D01*
X96738095Y-103214285D01*
X96880952Y-103261904D01*
X97452380Y-103833333D01*
X97452380Y-103214285D01*
X113690476Y-79952380D02*
X114357142Y-80952380D01*
X114357142Y-79952380D02*
X113690476Y-80952380D01*
X115261904Y-80952380D02*
X114690476Y-80952380D01*
X114976190Y-80952380D02*
X114976190Y-79952380D01*
X114880952Y-80095238D01*
X114785714Y-80190476D01*
X114690476Y-80238095D01*
X100857142Y-83741666D02*
X100904761Y-83789285D01*
X100952380Y-83932142D01*
X100952380Y-84027380D01*
X100904761Y-84170238D01*
X100809523Y-84265476D01*
X100714285Y-84313095D01*
X100523809Y-84360714D01*
X100380952Y-84360714D01*
X100190476Y-84313095D01*
X100095238Y-84265476D01*
X100000000Y-84170238D01*
X99952380Y-84027380D01*
X99952380Y-83932142D01*
X100000000Y-83789285D01*
X100047619Y-83741666D01*
X99952380Y-83408333D02*
X99952380Y-82789285D01*
X100333333Y-83122619D01*
X100333333Y-82979761D01*
X100380952Y-82884523D01*
X100428571Y-82836904D01*
X100523809Y-82789285D01*
X100761904Y-82789285D01*
X100857142Y-82836904D01*
X100904761Y-82884523D01*
X100952380Y-82979761D01*
X100952380Y-83265476D01*
X100904761Y-83360714D01*
X100857142Y-83408333D01*
D11*
X100010000Y-86359420D02*
X100010000Y-86640580D01*
X98990000Y-86359420D02*
X98990000Y-86640580D01*
X101522500Y-101262742D02*
X101522500Y-101737258D01*
X100477500Y-101262742D02*
X100477500Y-101737258D01*
X104022500Y-86737258D02*
X104022500Y-86262742D01*
X102977500Y-86737258D02*
X102977500Y-86262742D01*
D12*
X94400000Y-97970000D02*
X94400000Y-89030000D01*
X99810000Y-97970000D02*
X98370000Y-97970000D01*
X95630000Y-97970000D02*
X94400000Y-97970000D01*
X99810000Y-89030000D02*
X98370000Y-89030000D01*
X94400000Y-89030000D02*
X95630000Y-89030000D01*
D13*
X103500000Y-90100000D02*
G75*
G03*
X103500000Y-90100000I-100000J0D01*
G01*
D11*
X98490000Y-101359420D02*
X98490000Y-101640580D01*
X99510000Y-101359420D02*
X99510000Y-101640580D01*
D12*
X143300000Y-85400000D02*
X160700000Y-85400000D01*
X160700000Y-85400000D02*
X160700000Y-86005000D01*
X160700000Y-108600000D02*
X143300000Y-108600000D01*
X143300000Y-108600000D02*
X143300000Y-101715000D01*
X160700000Y-101715000D02*
X160700000Y-108600000D01*
X143300000Y-85400000D02*
X143300000Y-86005000D01*
D13*
X161954000Y-101010000D02*
G75*
G03*
X161954000Y-101010000I-100000J0D01*
G01*
D12*
X162300000Y-78400000D02*
X179700000Y-78400000D01*
X179700000Y-78400000D02*
X179700000Y-85285000D01*
X162300000Y-101600000D02*
X162300000Y-100995000D01*
X162300000Y-85285000D02*
X162300000Y-78400000D01*
X179700000Y-101600000D02*
X179700000Y-100995000D01*
X179700000Y-101600000D02*
X162300000Y-101600000D01*
D13*
X161246000Y-85990000D02*
G75*
G03*
X161246000Y-85990000I-100000J0D01*
G01*
D10*
X101420000Y-79425000D02*
X101900000Y-79425000D01*
X101420000Y-79425000D02*
X101420000Y-83575000D01*
X111100000Y-79425000D02*
X111100000Y-78300000D01*
X111580000Y-79425000D02*
X111100000Y-79425000D01*
X101420000Y-83575000D02*
X101900000Y-83575000D01*
X111580000Y-79425000D02*
X111580000Y-83575000D01*
X111580000Y-83575000D02*
X111100000Y-83575000D01*
D12*
X141700000Y-78400000D02*
X141700000Y-85285000D01*
X141700000Y-101600000D02*
X141700000Y-100995000D01*
X141700000Y-101600000D02*
X124300000Y-101600000D01*
X124300000Y-85285000D02*
X124300000Y-78400000D01*
X124300000Y-78400000D02*
X141700000Y-78400000D01*
X124300000Y-101600000D02*
X124300000Y-100995000D01*
D13*
X123246000Y-85990000D02*
G75*
G03*
X123246000Y-85990000I-100000J0D01*
G01*
D12*
X105300000Y-85400000D02*
X122700000Y-85400000D01*
X105300000Y-85400000D02*
X105300000Y-86005000D01*
X122700000Y-85400000D02*
X122700000Y-86005000D01*
X122700000Y-101715000D02*
X122700000Y-108600000D01*
X122700000Y-108600000D02*
X105300000Y-108600000D01*
X105300000Y-108600000D02*
X105300000Y-101715000D01*
D13*
X123954000Y-101010000D02*
G75*
G03*
X123954000Y-101010000I-100000J0D01*
G01*
D11*
X103735000Y-100015000D02*
X102265000Y-100015000D01*
X102265000Y-100015000D02*
X102265000Y-102300000D01*
X103735000Y-102300000D02*
X103735000Y-100015000D01*
X96977500Y-86737258D02*
X96977500Y-86262742D01*
X98022500Y-86737258D02*
X98022500Y-86262742D01*
X96477500Y-101737258D02*
X96477500Y-101262742D01*
X97522500Y-101737258D02*
X97522500Y-101262742D01*
X116500000Y-81350000D02*
X112500000Y-81350000D01*
X116500000Y-84650000D02*
X116500000Y-81350000D01*
X100990000Y-86359420D02*
X100990000Y-86640580D01*
X102010000Y-86359420D02*
X102010000Y-86640580D01*
M02*
