G04 #@! TF.GenerationSoftware,KiCad,Pcbnew,(6.0.7)*
G04 #@! TF.CreationDate,2023-03-12T22:24:00+09:00*
G04 #@! TF.ProjectId,flowing_dongle,666c6f77-696e-4675-9f64-6f6e676c652e,rev?*
G04 #@! TF.SameCoordinates,Original*
G04 #@! TF.FileFunction,Copper,L2,Bot*
G04 #@! TF.FilePolarity,Positive*
%FSLAX46Y46*%
G04 Gerber Fmt 4.6, Leading zero omitted, Abs format (unit mm)*
G04 Created by KiCad (PCBNEW (6.0.7)) date 2023-03-12 22:24:00*
%MOMM*%
%LPD*%
G01*
G04 APERTURE LIST*
G04 #@! TA.AperFunction,ComponentPad*
%ADD10O,2.100000X1.050000*%
G04 #@! TD*
G04 #@! TA.AperFunction,SMDPad,CuDef*
%ADD11C,1.500000*%
G04 #@! TD*
G04 #@! TA.AperFunction,ViaPad*
%ADD12C,0.800000*%
G04 #@! TD*
G04 #@! TA.AperFunction,Conductor*
%ADD13C,0.500000*%
G04 #@! TD*
G04 #@! TA.AperFunction,Conductor*
%ADD14C,0.250000*%
G04 #@! TD*
G04 #@! TA.AperFunction,Conductor*
%ADD15C,0.800000*%
G04 #@! TD*
G04 #@! TA.AperFunction,Conductor*
%ADD16C,0.470000*%
G04 #@! TD*
G04 #@! TA.AperFunction,Conductor*
%ADD17C,0.200000*%
G04 #@! TD*
G04 APERTURE END LIST*
D10*
X101180000Y-89180000D03*
X101180000Y-97820000D03*
X97000000Y-89180000D03*
X97000000Y-97820000D03*
D11*
X153250000Y-97250000D03*
X172250000Y-97250000D03*
X167250000Y-97250000D03*
X148250000Y-97250000D03*
X136750000Y-97250000D03*
X110250000Y-97250000D03*
X174750000Y-97250000D03*
X131750000Y-97250000D03*
X169750000Y-97250000D03*
X112750000Y-97250000D03*
X150750000Y-97250000D03*
X117750000Y-97250000D03*
X155750000Y-97250000D03*
X134250000Y-97250000D03*
X129250000Y-97250000D03*
X115250000Y-97250000D03*
D12*
X174900000Y-100300000D03*
X101000000Y-99500000D03*
X103500000Y-95500000D03*
X147750000Y-94500000D03*
X107500000Y-86750000D03*
X138590000Y-100290000D03*
X126500000Y-96000000D03*
X184000000Y-93250000D03*
X174750000Y-99000000D03*
X98000000Y-101500000D03*
X160750000Y-85500000D03*
X104000000Y-99500000D03*
X97000000Y-90750000D03*
X97000000Y-96250000D03*
X184000000Y-85500000D03*
X99500000Y-79000000D03*
X158750000Y-87750000D03*
X99300000Y-88500000D03*
X100250000Y-92000000D03*
X158500000Y-101500000D03*
X164500000Y-99000000D03*
X177250000Y-94000000D03*
X145400000Y-93000000D03*
X111258549Y-79991451D03*
X171750000Y-98750000D03*
X179250000Y-101500000D03*
X117000000Y-85500000D03*
X173500000Y-90250000D03*
X139500000Y-85500000D03*
X152750000Y-98750000D03*
X129250000Y-99000000D03*
X120400000Y-99000000D03*
X136750000Y-99000000D03*
X109500000Y-91500000D03*
X177750000Y-91000000D03*
X107500000Y-99750000D03*
X107500000Y-96250000D03*
X149000000Y-91250000D03*
X139250000Y-92500000D03*
X167250000Y-99000000D03*
X111750000Y-84000000D03*
X122750000Y-85500000D03*
X145500000Y-96500000D03*
X120750000Y-87750000D03*
X162500000Y-101500000D03*
X139500000Y-96750000D03*
X145500000Y-101500000D03*
X115700000Y-87700000D03*
X124750000Y-101500000D03*
X143500000Y-85500000D03*
X114750000Y-98750000D03*
X141500000Y-101500000D03*
X164500000Y-85500000D03*
X126500000Y-85500000D03*
X133737701Y-98737701D03*
X181250000Y-85500000D03*
X177500000Y-85500000D03*
X96500000Y-83200000D03*
X99250000Y-98800000D03*
X184000000Y-101500000D03*
X156000000Y-99000000D03*
X99500000Y-84500000D03*
X101500000Y-80000000D03*
X101500000Y-84500000D03*
X102500000Y-81000000D03*
X110500000Y-82500000D03*
X100000000Y-94500000D03*
X103224003Y-82500000D03*
X103375500Y-92250000D03*
X104197640Y-88474376D03*
X97000000Y-99500000D03*
X100000000Y-95500000D03*
X100551789Y-79683930D03*
X97500000Y-84500000D03*
X107500000Y-89000000D03*
X104000000Y-81012299D03*
X107500000Y-88000000D03*
X105000000Y-81000000D03*
X139500000Y-98000000D03*
X105500000Y-82000000D03*
X106500000Y-82000000D03*
X139500000Y-99000000D03*
X107000000Y-81000000D03*
X146500000Y-91750000D03*
X108000000Y-81000000D03*
X146500000Y-90750000D03*
X108500000Y-82000000D03*
X177475000Y-98000000D03*
X177475000Y-99000000D03*
X109500000Y-82000000D03*
X116250000Y-98750000D03*
X113250000Y-98750000D03*
X111750000Y-98750000D03*
X135250000Y-98750000D03*
X132250000Y-98750000D03*
X130750000Y-98750000D03*
X154250000Y-98750000D03*
X151250000Y-98750000D03*
X149750000Y-98750000D03*
X173250000Y-98750000D03*
X170250000Y-98750000D03*
X168750000Y-98750000D03*
X100000000Y-93500000D03*
X102224500Y-82500000D03*
D13*
X138590000Y-100290000D02*
X146710000Y-100290000D01*
X147750000Y-94500000D02*
X146710000Y-95540000D01*
X122500000Y-94750000D02*
X128040000Y-100290000D01*
X103500000Y-95500000D02*
X103500000Y-98500000D01*
X103500000Y-98500000D02*
X102500000Y-99500000D01*
X108750000Y-90250000D02*
X110166727Y-90250000D01*
X114666727Y-94750000D02*
X122500000Y-94750000D01*
X110166727Y-90250000D02*
X114666727Y-94750000D01*
X108750000Y-88000000D02*
X108750000Y-90250000D01*
X108750000Y-90250000D02*
X103500000Y-95500000D01*
X107500000Y-86750000D02*
X108750000Y-88000000D01*
X146710000Y-95540000D02*
X146710000Y-100290000D01*
X102500000Y-99500000D02*
X101000000Y-99500000D01*
X128040000Y-100290000D02*
X138590000Y-100290000D01*
X174890000Y-100290000D02*
X146710000Y-100290000D01*
X174900000Y-100300000D02*
X174890000Y-100290000D01*
D14*
X172250000Y-97250000D02*
X172250000Y-98250000D01*
D15*
X99700000Y-98800000D02*
X99250000Y-98800000D01*
D14*
X134250000Y-98225402D02*
X134250000Y-97250000D01*
D15*
X100680000Y-97820000D02*
X99700000Y-98800000D01*
D14*
X153250000Y-97250000D02*
X153250000Y-98250000D01*
X133737701Y-98737701D02*
X134250000Y-98225402D01*
X114750000Y-97750000D02*
X115250000Y-97250000D01*
X153250000Y-98250000D02*
X152750000Y-98750000D01*
D16*
X114750000Y-98750000D02*
X114750000Y-97750000D01*
D14*
X172250000Y-98250000D02*
X171750000Y-98750000D01*
X101500000Y-80000000D02*
X101000000Y-80500000D01*
X101000000Y-80500000D02*
X101000000Y-83000000D01*
X101000000Y-83000000D02*
X99500000Y-84500000D01*
X103225000Y-80275000D02*
X102500000Y-81000000D01*
X110500000Y-82500000D02*
X110500000Y-81974695D01*
X101500000Y-82000000D02*
X101500000Y-84500000D01*
X102500000Y-81000000D02*
X101500000Y-82000000D01*
X110500000Y-81974695D02*
X108800305Y-80275000D01*
X108800305Y-80275000D02*
X103225000Y-80275000D01*
D17*
X102949252Y-91550748D02*
X102949252Y-82774751D01*
X102949252Y-82774751D02*
X103224003Y-82500000D01*
X100000000Y-94500000D02*
X102949252Y-91550748D01*
D14*
X103375500Y-92250000D02*
X104500000Y-91125500D01*
X104500000Y-88776736D02*
X104197640Y-88474376D01*
X104500000Y-91125500D02*
X104500000Y-88776736D01*
X99000000Y-98000000D02*
X97500000Y-99500000D01*
X100000000Y-95500000D02*
X99000000Y-96500000D01*
X99000000Y-96500000D02*
X99000000Y-98000000D01*
X97500000Y-99500000D02*
X97000000Y-99500000D01*
X100550000Y-82700000D02*
X99750000Y-83500000D01*
X98500000Y-83500000D02*
X97500000Y-84500000D01*
X100550000Y-79685719D02*
X100550000Y-82700000D01*
X100551789Y-79683930D02*
X100550000Y-79685719D01*
X99750000Y-83500000D02*
X98500000Y-83500000D01*
D17*
X104268850Y-81281149D02*
X104268850Y-85768850D01*
X104268850Y-85768850D02*
X107500000Y-89000000D01*
X104000000Y-81012299D02*
X104268850Y-81281149D01*
X105000000Y-81000000D02*
X104718851Y-81281149D01*
X107136397Y-88000000D02*
X107500000Y-88000000D01*
X104718851Y-81281149D02*
X104718851Y-85582454D01*
X104718851Y-85582454D02*
X107136397Y-88000000D01*
X140775000Y-94843200D02*
X139656800Y-93725000D01*
X139625000Y-98000000D02*
X139988603Y-98000000D01*
X139656800Y-93725000D02*
X115906800Y-93725000D01*
X105774999Y-83593199D02*
X105774999Y-82274999D01*
X139988603Y-98000000D02*
X140775000Y-97213601D01*
X140775000Y-97213601D02*
X140775000Y-94843200D01*
X105774999Y-82274999D02*
X105500000Y-82000000D01*
X115906800Y-93725000D02*
X105774999Y-83593199D01*
X116093200Y-93275000D02*
X106225001Y-83406801D01*
X139625000Y-99000000D02*
X141225000Y-97400001D01*
X106225001Y-83406801D02*
X106225001Y-82274999D01*
X106225001Y-82274999D02*
X106500000Y-82000000D01*
X141225000Y-94656800D02*
X139843200Y-93275000D01*
X141225000Y-97400001D02*
X141225000Y-94656800D01*
X139843200Y-93275000D02*
X116093200Y-93275000D01*
X107000000Y-81000000D02*
X107274999Y-81274999D01*
X115656800Y-91475000D02*
X146225001Y-91475001D01*
X146225001Y-91475001D02*
X146500000Y-91750000D01*
X107274999Y-81274999D02*
X107274999Y-83093199D01*
X107274999Y-83093199D02*
X115656800Y-91475000D01*
X108000000Y-81000000D02*
X107725001Y-81274999D01*
X146225001Y-91024999D02*
X146500000Y-90750000D01*
X107725001Y-81274999D02*
X107725001Y-82906801D01*
X115843200Y-91025000D02*
X146225001Y-91024999D01*
X107725001Y-82906801D02*
X115843200Y-91025000D01*
X108774999Y-82274999D02*
X108500000Y-82000000D01*
X108774999Y-83093199D02*
X108774999Y-82274999D01*
X177475000Y-98000000D02*
X177838603Y-98000000D01*
X178275000Y-93593200D02*
X173906800Y-89225000D01*
X178275000Y-97563603D02*
X178275000Y-93593200D01*
X114906800Y-89225000D02*
X108774999Y-83093199D01*
X177838603Y-98000000D02*
X178275000Y-97563603D01*
X173906800Y-89225000D02*
X114906800Y-89225000D01*
X178725000Y-97750000D02*
X178725000Y-93406800D01*
X178725000Y-93406800D02*
X174093200Y-88775000D01*
X115093200Y-88775000D02*
X109225001Y-82906801D01*
X109225001Y-82906801D02*
X109225001Y-82274999D01*
X109225001Y-82274999D02*
X109500000Y-82000000D01*
X174093200Y-88775000D02*
X115093200Y-88775000D01*
X177475000Y-99000000D02*
X178725000Y-97750000D01*
D14*
X117750000Y-97250000D02*
X116250000Y-98750000D01*
X112750000Y-97250000D02*
X112750000Y-98250000D01*
X112750000Y-98250000D02*
X113250000Y-98750000D01*
X110250000Y-97250000D02*
X111750000Y-98750000D01*
X135250000Y-98750000D02*
X136750000Y-97250000D01*
X131750000Y-98250000D02*
X131750000Y-97250000D01*
X132250000Y-98750000D02*
X131750000Y-98250000D01*
X130750000Y-98750000D02*
X129250000Y-97250000D01*
X155750000Y-97250000D02*
X154250000Y-98750000D01*
X150750000Y-98250000D02*
X151250000Y-98750000D01*
X150750000Y-97250000D02*
X150750000Y-98250000D01*
X148250000Y-97250000D02*
X149750000Y-98750000D01*
X174750000Y-97250000D02*
X173250000Y-98750000D01*
X169750000Y-97250000D02*
X169750000Y-98250000D01*
X169750000Y-98250000D02*
X170250000Y-98750000D01*
X167250000Y-97250000D02*
X168750000Y-98750000D01*
D17*
X102499251Y-91364352D02*
X102499251Y-89552475D01*
X102530000Y-88838274D02*
X102499251Y-88807525D01*
X102499251Y-88807525D02*
X102499251Y-82774751D01*
X100000000Y-93500000D02*
X100363603Y-93500000D01*
X102499251Y-89552475D02*
X102530000Y-89521726D01*
X102499251Y-82774751D02*
X102224500Y-82500000D01*
X102530000Y-89521726D02*
X102530000Y-88838274D01*
X100363603Y-93500000D02*
X102499251Y-91364352D01*
G04 #@! TA.AperFunction,Conductor*
G36*
X110524431Y-78528502D02*
G01*
X110545405Y-78545405D01*
X117000000Y-85000000D01*
X184365500Y-85000000D01*
X184433621Y-85020002D01*
X184480114Y-85073658D01*
X184491500Y-85126000D01*
X184491500Y-101874000D01*
X184471498Y-101942121D01*
X184417842Y-101988614D01*
X184365500Y-102000000D01*
X96552190Y-102000000D01*
X96484069Y-101979998D01*
X96463095Y-101963095D01*
X96045405Y-101545405D01*
X96011379Y-101483093D01*
X96008500Y-101456310D01*
X96008500Y-100843690D01*
X96028502Y-100775569D01*
X96045405Y-100754595D01*
X96363095Y-100436905D01*
X96425407Y-100402879D01*
X96452190Y-100400000D01*
X96851279Y-100400000D01*
X96877476Y-100402754D01*
X96898047Y-100407127D01*
X96898060Y-100407128D01*
X96904513Y-100408500D01*
X97095487Y-100408500D01*
X97101939Y-100407128D01*
X97101944Y-100407128D01*
X97188887Y-100388647D01*
X97282288Y-100368794D01*
X97288319Y-100366109D01*
X97450722Y-100293803D01*
X97450724Y-100293802D01*
X97456752Y-100291118D01*
X97462097Y-100287235D01*
X97605793Y-100182833D01*
X97611253Y-100178866D01*
X97649642Y-100136231D01*
X97696898Y-100103389D01*
X97699914Y-100102195D01*
X97711142Y-100098351D01*
X97721998Y-100095197D01*
X97753593Y-100086018D01*
X97760412Y-100081985D01*
X97760417Y-100081983D01*
X97771028Y-100075707D01*
X97788776Y-100067012D01*
X97807617Y-100059552D01*
X97843387Y-100033564D01*
X97853307Y-100027048D01*
X97884535Y-100008580D01*
X97884538Y-100008578D01*
X97891362Y-100004542D01*
X97905683Y-99990221D01*
X97920717Y-99977380D01*
X97930694Y-99970131D01*
X97937107Y-99965472D01*
X97965298Y-99931395D01*
X97973288Y-99922616D01*
X99392247Y-98503657D01*
X99400537Y-98496113D01*
X99407018Y-98492000D01*
X99453659Y-98442332D01*
X99456413Y-98439491D01*
X99476134Y-98419770D01*
X99478612Y-98416575D01*
X99486318Y-98407553D01*
X99511158Y-98381101D01*
X99516586Y-98375321D01*
X99522732Y-98364142D01*
X99526346Y-98357568D01*
X99537199Y-98341045D01*
X99538674Y-98339144D01*
X99549611Y-98325043D01*
X99551854Y-98326783D01*
X99593876Y-98287556D01*
X99663728Y-98274860D01*
X99729356Y-98301944D01*
X99762084Y-98341781D01*
X99783584Y-98382908D01*
X99790302Y-98393173D01*
X99909515Y-98541443D01*
X99918103Y-98550213D01*
X100063838Y-98672499D01*
X100073969Y-98679437D01*
X100230555Y-98765521D01*
X100280614Y-98815867D01*
X100295507Y-98885284D01*
X100270506Y-98951733D01*
X100266570Y-98956510D01*
X100265383Y-98958144D01*
X100260960Y-98963056D01*
X100165473Y-99128444D01*
X100106458Y-99310072D01*
X100105768Y-99316633D01*
X100105768Y-99316635D01*
X100087186Y-99493435D01*
X100086496Y-99500000D01*
X100087186Y-99506565D01*
X100103011Y-99657128D01*
X100106458Y-99689928D01*
X100165473Y-99871556D01*
X100168776Y-99877278D01*
X100168777Y-99877279D01*
X100186803Y-99908500D01*
X100260960Y-100036944D01*
X100265378Y-100041851D01*
X100265379Y-100041852D01*
X100356286Y-100142814D01*
X100388747Y-100178866D01*
X100441025Y-100216848D01*
X100537904Y-100287235D01*
X100543248Y-100291118D01*
X100549276Y-100293802D01*
X100549278Y-100293803D01*
X100711681Y-100366109D01*
X100717712Y-100368794D01*
X100811113Y-100388647D01*
X100898056Y-100407128D01*
X100898061Y-100407128D01*
X100904513Y-100408500D01*
X101095487Y-100408500D01*
X101101939Y-100407128D01*
X101101944Y-100407128D01*
X101188887Y-100388647D01*
X101282288Y-100368794D01*
X101288319Y-100366109D01*
X101450722Y-100293803D01*
X101450724Y-100293802D01*
X101456752Y-100291118D01*
X101462091Y-100287239D01*
X101462098Y-100287235D01*
X101468528Y-100282563D01*
X101542587Y-100258500D01*
X102432930Y-100258500D01*
X102451880Y-100259933D01*
X102466115Y-100262099D01*
X102466119Y-100262099D01*
X102473349Y-100263199D01*
X102480641Y-100262606D01*
X102480644Y-100262606D01*
X102526018Y-100258915D01*
X102536233Y-100258500D01*
X102544293Y-100258500D01*
X102557583Y-100256951D01*
X102572507Y-100255211D01*
X102576882Y-100254778D01*
X102642339Y-100249454D01*
X102642342Y-100249453D01*
X102649637Y-100248860D01*
X102656601Y-100246604D01*
X102662560Y-100245413D01*
X102668415Y-100244029D01*
X102675681Y-100243182D01*
X102744327Y-100218265D01*
X102748455Y-100216848D01*
X102810936Y-100196607D01*
X102810938Y-100196606D01*
X102817899Y-100194351D01*
X102824154Y-100190555D01*
X102829628Y-100188049D01*
X102835058Y-100185330D01*
X102841937Y-100182833D01*
X102902976Y-100142814D01*
X102906680Y-100140477D01*
X102969107Y-100102595D01*
X102977484Y-100095197D01*
X102977508Y-100095224D01*
X102980500Y-100092571D01*
X102983733Y-100089868D01*
X102989852Y-100085856D01*
X103043128Y-100029617D01*
X103045506Y-100027175D01*
X103988911Y-99083770D01*
X104003323Y-99071384D01*
X104014918Y-99062851D01*
X104014923Y-99062846D01*
X104020818Y-99058508D01*
X104025557Y-99052930D01*
X104025560Y-99052927D01*
X104055035Y-99018232D01*
X104061965Y-99010716D01*
X104067661Y-99005020D01*
X104069924Y-99002159D01*
X104069929Y-99002154D01*
X104085293Y-98982734D01*
X104088082Y-98979333D01*
X104130592Y-98929296D01*
X104130594Y-98929294D01*
X104135333Y-98923715D01*
X104138662Y-98917195D01*
X104142028Y-98912148D01*
X104145193Y-98907024D01*
X104149735Y-98901283D01*
X104157213Y-98885284D01*
X104180634Y-98835170D01*
X104182565Y-98831218D01*
X104212442Y-98772708D01*
X104212443Y-98772706D01*
X104215769Y-98766192D01*
X104217508Y-98759086D01*
X104219609Y-98753436D01*
X104221524Y-98747679D01*
X104224622Y-98741050D01*
X104239491Y-98669565D01*
X104240461Y-98665282D01*
X104249564Y-98628081D01*
X104257808Y-98594390D01*
X104258500Y-98583236D01*
X104258535Y-98583238D01*
X104258775Y-98579266D01*
X104259152Y-98575045D01*
X104260641Y-98567885D01*
X104258546Y-98490458D01*
X104258500Y-98487050D01*
X104258500Y-97250000D01*
X108986693Y-97250000D01*
X109005885Y-97469371D01*
X109062880Y-97682076D01*
X109098372Y-97758189D01*
X109153618Y-97876666D01*
X109153621Y-97876671D01*
X109155944Y-97881653D01*
X109159100Y-97886160D01*
X109159101Y-97886162D01*
X109278637Y-98056876D01*
X109282251Y-98062038D01*
X109437962Y-98217749D01*
X109442471Y-98220906D01*
X109442473Y-98220908D01*
X109468500Y-98239132D01*
X109618346Y-98344056D01*
X109817924Y-98437120D01*
X110030629Y-98494115D01*
X110250000Y-98513307D01*
X110469371Y-98494115D01*
X110474681Y-98492692D01*
X110474688Y-98492691D01*
X110500719Y-98485716D01*
X110571696Y-98487406D01*
X110622424Y-98518328D01*
X110802878Y-98698782D01*
X110836904Y-98761094D01*
X110839093Y-98774707D01*
X110855341Y-98929296D01*
X110856458Y-98939928D01*
X110915473Y-99121556D01*
X111010960Y-99286944D01*
X111015378Y-99291851D01*
X111015379Y-99291852D01*
X111131850Y-99421206D01*
X111138747Y-99428866D01*
X111178629Y-99457842D01*
X111264339Y-99520114D01*
X111293248Y-99541118D01*
X111299276Y-99543802D01*
X111299278Y-99543803D01*
X111461681Y-99616109D01*
X111467712Y-99618794D01*
X111561112Y-99638647D01*
X111648056Y-99657128D01*
X111648061Y-99657128D01*
X111654513Y-99658500D01*
X111845487Y-99658500D01*
X111851939Y-99657128D01*
X111851944Y-99657128D01*
X111938888Y-99638647D01*
X112032288Y-99618794D01*
X112038319Y-99616109D01*
X112200722Y-99543803D01*
X112200724Y-99543802D01*
X112206752Y-99541118D01*
X112235662Y-99520114D01*
X112321371Y-99457842D01*
X112361253Y-99428866D01*
X112369386Y-99419834D01*
X112406364Y-99378765D01*
X112466810Y-99341525D01*
X112537793Y-99342877D01*
X112593636Y-99378765D01*
X112630615Y-99419834D01*
X112638747Y-99428866D01*
X112678629Y-99457842D01*
X112764339Y-99520114D01*
X112793248Y-99541118D01*
X112799276Y-99543802D01*
X112799278Y-99543803D01*
X112961681Y-99616109D01*
X112967712Y-99618794D01*
X113061112Y-99638647D01*
X113148056Y-99657128D01*
X113148061Y-99657128D01*
X113154513Y-99658500D01*
X113345487Y-99658500D01*
X113351939Y-99657128D01*
X113351944Y-99657128D01*
X113438888Y-99638647D01*
X113532288Y-99618794D01*
X113538319Y-99616109D01*
X113700722Y-99543803D01*
X113700724Y-99543802D01*
X113706752Y-99541118D01*
X113735662Y-99520114D01*
X113821371Y-99457842D01*
X113861253Y-99428866D01*
X113868150Y-99421206D01*
X113984621Y-99291852D01*
X113984622Y-99291851D01*
X113989040Y-99286944D01*
X114084527Y-99121556D01*
X114143542Y-98939928D01*
X114144660Y-98929296D01*
X114162814Y-98756565D01*
X114163504Y-98750000D01*
X114150690Y-98628081D01*
X114150000Y-98614911D01*
X114150000Y-98300161D01*
X114564394Y-98300161D01*
X114573690Y-98312176D01*
X114614088Y-98340464D01*
X114623584Y-98345947D01*
X114813113Y-98434326D01*
X114823405Y-98438072D01*
X115025401Y-98492196D01*
X115036196Y-98494099D01*
X115232680Y-98511290D01*
X115298798Y-98537154D01*
X115340438Y-98594657D01*
X115347008Y-98649981D01*
X115343912Y-98679437D01*
X115336496Y-98750000D01*
X115337186Y-98756565D01*
X115355341Y-98929296D01*
X115356458Y-98939928D01*
X115415473Y-99121556D01*
X115510960Y-99286944D01*
X115515378Y-99291851D01*
X115515379Y-99291852D01*
X115631850Y-99421206D01*
X115638747Y-99428866D01*
X115678629Y-99457842D01*
X115764339Y-99520114D01*
X115793248Y-99541118D01*
X115799276Y-99543802D01*
X115799278Y-99543803D01*
X115961681Y-99616109D01*
X115967712Y-99618794D01*
X116061112Y-99638647D01*
X116148056Y-99657128D01*
X116148061Y-99657128D01*
X116154513Y-99658500D01*
X116345487Y-99658500D01*
X116351939Y-99657128D01*
X116351944Y-99657128D01*
X116438888Y-99638647D01*
X116532288Y-99618794D01*
X116538319Y-99616109D01*
X116700722Y-99543803D01*
X116700724Y-99543802D01*
X116706752Y-99541118D01*
X116735662Y-99520114D01*
X116821371Y-99457842D01*
X116861253Y-99428866D01*
X116868150Y-99421206D01*
X116984621Y-99291852D01*
X116984622Y-99291851D01*
X116989040Y-99286944D01*
X117084527Y-99121556D01*
X117143542Y-98939928D01*
X117144660Y-98929296D01*
X117160907Y-98774707D01*
X117187920Y-98709050D01*
X117197122Y-98698782D01*
X117377576Y-98518328D01*
X117439888Y-98484302D01*
X117499281Y-98485716D01*
X117525312Y-98492691D01*
X117525319Y-98492692D01*
X117530629Y-98494115D01*
X117750000Y-98513307D01*
X117969371Y-98494115D01*
X118182076Y-98437120D01*
X118381654Y-98344056D01*
X118531500Y-98239132D01*
X118557527Y-98220908D01*
X118557529Y-98220906D01*
X118562038Y-98217749D01*
X118717749Y-98062038D01*
X118721364Y-98056876D01*
X118840899Y-97886162D01*
X118840900Y-97886160D01*
X118844056Y-97881653D01*
X118846379Y-97876671D01*
X118846382Y-97876666D01*
X118901628Y-97758189D01*
X118937120Y-97682076D01*
X118994115Y-97469371D01*
X119013307Y-97250000D01*
X118994115Y-97030629D01*
X118937120Y-96817924D01*
X118880091Y-96695625D01*
X118846382Y-96623334D01*
X118846379Y-96623329D01*
X118844056Y-96618347D01*
X118812786Y-96573689D01*
X118720908Y-96442473D01*
X118720906Y-96442470D01*
X118717749Y-96437962D01*
X118562038Y-96282251D01*
X118537316Y-96264940D01*
X118482759Y-96226739D01*
X118381654Y-96155944D01*
X118182076Y-96062880D01*
X117969371Y-96005885D01*
X117750000Y-95986693D01*
X117530629Y-96005885D01*
X117317924Y-96062880D01*
X117254513Y-96092449D01*
X117123334Y-96153618D01*
X117123329Y-96153621D01*
X117118347Y-96155944D01*
X117113840Y-96159100D01*
X117113838Y-96159101D01*
X116942473Y-96279092D01*
X116942470Y-96279094D01*
X116937962Y-96282251D01*
X116782251Y-96437962D01*
X116779094Y-96442470D01*
X116779092Y-96442473D01*
X116687214Y-96573689D01*
X116655944Y-96618347D01*
X116653621Y-96623329D01*
X116653618Y-96623334D01*
X116613919Y-96708470D01*
X116567002Y-96761755D01*
X116498724Y-96781216D01*
X116430765Y-96760674D01*
X116385529Y-96708470D01*
X116345946Y-96623583D01*
X116340466Y-96614093D01*
X116311589Y-96572851D01*
X116301114Y-96564477D01*
X116287665Y-96571546D01*
X115250000Y-97609210D01*
X114570822Y-98288389D01*
X114564394Y-98300161D01*
X114150000Y-98300161D01*
X114150000Y-98037337D01*
X114170002Y-97969216D01*
X114199238Y-97942425D01*
X114198801Y-97941988D01*
X114877979Y-97262811D01*
X114885592Y-97248868D01*
X114885461Y-97247034D01*
X114881210Y-97240420D01*
X114211609Y-96570820D01*
X114199839Y-96564393D01*
X114187824Y-96573689D01*
X114159534Y-96614093D01*
X114154054Y-96623583D01*
X114114471Y-96708470D01*
X114067554Y-96761755D01*
X113999276Y-96781216D01*
X113931316Y-96760674D01*
X113886081Y-96708470D01*
X113846382Y-96623334D01*
X113846379Y-96623329D01*
X113844056Y-96618347D01*
X113812786Y-96573689D01*
X113720908Y-96442473D01*
X113720906Y-96442470D01*
X113717749Y-96437962D01*
X113562038Y-96282251D01*
X113537316Y-96264940D01*
X113482759Y-96226739D01*
X113442983Y-96198887D01*
X114564477Y-96198887D01*
X114571545Y-96212334D01*
X115237189Y-96877979D01*
X115251132Y-96885592D01*
X115252966Y-96885461D01*
X115259580Y-96881210D01*
X115929180Y-96211609D01*
X115935607Y-96199839D01*
X115926313Y-96187825D01*
X115885912Y-96159536D01*
X115876416Y-96154053D01*
X115686887Y-96065674D01*
X115676595Y-96061928D01*
X115474599Y-96007804D01*
X115463804Y-96005901D01*
X115255475Y-95987674D01*
X115244525Y-95987674D01*
X115036196Y-96005901D01*
X115025401Y-96007804D01*
X114823405Y-96061928D01*
X114813113Y-96065674D01*
X114623583Y-96154054D01*
X114614093Y-96159534D01*
X114572851Y-96188411D01*
X114564477Y-96198887D01*
X113442983Y-96198887D01*
X113381654Y-96155944D01*
X113182076Y-96062880D01*
X112969371Y-96005885D01*
X112750000Y-95986693D01*
X112530629Y-96005885D01*
X112317924Y-96062880D01*
X112254513Y-96092449D01*
X112123334Y-96153618D01*
X112123329Y-96153621D01*
X112118347Y-96155944D01*
X112113840Y-96159100D01*
X112113838Y-96159101D01*
X111942473Y-96279092D01*
X111942470Y-96279094D01*
X111937962Y-96282251D01*
X111782251Y-96437962D01*
X111779094Y-96442470D01*
X111779092Y-96442473D01*
X111687214Y-96573689D01*
X111655944Y-96618347D01*
X111653621Y-96623329D01*
X111653618Y-96623334D01*
X111614195Y-96707878D01*
X111567278Y-96761163D01*
X111499000Y-96780624D01*
X111431040Y-96760082D01*
X111385805Y-96707878D01*
X111346382Y-96623334D01*
X111346379Y-96623329D01*
X111344056Y-96618347D01*
X111312786Y-96573689D01*
X111220908Y-96442473D01*
X111220906Y-96442470D01*
X111217749Y-96437962D01*
X111062038Y-96282251D01*
X111037316Y-96264940D01*
X110982759Y-96226739D01*
X110881654Y-96155944D01*
X110682076Y-96062880D01*
X110469371Y-96005885D01*
X110250000Y-95986693D01*
X110030629Y-96005885D01*
X109817924Y-96062880D01*
X109754513Y-96092449D01*
X109623334Y-96153618D01*
X109623329Y-96153621D01*
X109618347Y-96155944D01*
X109613840Y-96159100D01*
X109613838Y-96159101D01*
X109442473Y-96279092D01*
X109442470Y-96279094D01*
X109437962Y-96282251D01*
X109282251Y-96437962D01*
X109279094Y-96442470D01*
X109279092Y-96442473D01*
X109187214Y-96573689D01*
X109155944Y-96618347D01*
X109153621Y-96623329D01*
X109153618Y-96623334D01*
X109119909Y-96695625D01*
X109062880Y-96817924D01*
X109005885Y-97030629D01*
X108986693Y-97250000D01*
X104258500Y-97250000D01*
X104258500Y-96036999D01*
X104275381Y-95973999D01*
X104331223Y-95877279D01*
X104331224Y-95877278D01*
X104334527Y-95871556D01*
X104389387Y-95702714D01*
X104420125Y-95652556D01*
X109027276Y-91045405D01*
X109089588Y-91011379D01*
X109116371Y-91008500D01*
X109800356Y-91008500D01*
X109868477Y-91028502D01*
X109889451Y-91045405D01*
X114082957Y-95238911D01*
X114095343Y-95253323D01*
X114103876Y-95264918D01*
X114103881Y-95264923D01*
X114108219Y-95270818D01*
X114113797Y-95275557D01*
X114113800Y-95275560D01*
X114148495Y-95305035D01*
X114156011Y-95311965D01*
X114161706Y-95317660D01*
X114164588Y-95319940D01*
X114183978Y-95335281D01*
X114187382Y-95338072D01*
X114230497Y-95374701D01*
X114243012Y-95385333D01*
X114249528Y-95388661D01*
X114254577Y-95392028D01*
X114259706Y-95395195D01*
X114265443Y-95399734D01*
X114331602Y-95430655D01*
X114335496Y-95432558D01*
X114400535Y-95465769D01*
X114407643Y-95467508D01*
X114413286Y-95469607D01*
X114419049Y-95471524D01*
X114425677Y-95474622D01*
X114432839Y-95476112D01*
X114432840Y-95476112D01*
X114497139Y-95489486D01*
X114501423Y-95490456D01*
X114572337Y-95507808D01*
X114577939Y-95508156D01*
X114577942Y-95508156D01*
X114583491Y-95508500D01*
X114583489Y-95508536D01*
X114587482Y-95508775D01*
X114591674Y-95509149D01*
X114598842Y-95510640D01*
X114676247Y-95508546D01*
X114679655Y-95508500D01*
X122133629Y-95508500D01*
X122201750Y-95528502D01*
X122222724Y-95545405D01*
X127456230Y-100778911D01*
X127468616Y-100793323D01*
X127477149Y-100804918D01*
X127477154Y-100804923D01*
X127481492Y-100810818D01*
X127487070Y-100815557D01*
X127487073Y-100815560D01*
X127521768Y-100845035D01*
X127529284Y-100851965D01*
X127534979Y-100857660D01*
X127537861Y-100859940D01*
X127557251Y-100875281D01*
X127560655Y-100878072D01*
X127610703Y-100920591D01*
X127616285Y-100925333D01*
X127622801Y-100928661D01*
X127627850Y-100932028D01*
X127632979Y-100935195D01*
X127638716Y-100939734D01*
X127704875Y-100970655D01*
X127708769Y-100972558D01*
X127773808Y-101005769D01*
X127780916Y-101007508D01*
X127786559Y-101009607D01*
X127792322Y-101011524D01*
X127798950Y-101014622D01*
X127806112Y-101016112D01*
X127806113Y-101016112D01*
X127870412Y-101029486D01*
X127874696Y-101030456D01*
X127945610Y-101047808D01*
X127951212Y-101048156D01*
X127951215Y-101048156D01*
X127956764Y-101048500D01*
X127956762Y-101048536D01*
X127960755Y-101048775D01*
X127964947Y-101049149D01*
X127972115Y-101050640D01*
X128041056Y-101048775D01*
X128049521Y-101048546D01*
X128052928Y-101048500D01*
X138047413Y-101048500D01*
X138121472Y-101072563D01*
X138127902Y-101077235D01*
X138127909Y-101077239D01*
X138133248Y-101081118D01*
X138139276Y-101083802D01*
X138139278Y-101083803D01*
X138146998Y-101087240D01*
X138307712Y-101158794D01*
X138401113Y-101178647D01*
X138488056Y-101197128D01*
X138488061Y-101197128D01*
X138494513Y-101198500D01*
X138685487Y-101198500D01*
X138691939Y-101197128D01*
X138691944Y-101197128D01*
X138778888Y-101178647D01*
X138872288Y-101158794D01*
X139033002Y-101087240D01*
X139040722Y-101083803D01*
X139040724Y-101083802D01*
X139046752Y-101081118D01*
X139052091Y-101077239D01*
X139052098Y-101077235D01*
X139058528Y-101072563D01*
X139132587Y-101048500D01*
X146682165Y-101048500D01*
X146689966Y-101048742D01*
X146751298Y-101052547D01*
X146764260Y-101050320D01*
X146785596Y-101048500D01*
X174343650Y-101048500D01*
X174411771Y-101068502D01*
X174417693Y-101072551D01*
X174443248Y-101091118D01*
X174449276Y-101093802D01*
X174449278Y-101093803D01*
X174598333Y-101160166D01*
X174617712Y-101168794D01*
X174711113Y-101188647D01*
X174798056Y-101207128D01*
X174798061Y-101207128D01*
X174804513Y-101208500D01*
X174995487Y-101208500D01*
X175001939Y-101207128D01*
X175001944Y-101207128D01*
X175088888Y-101188647D01*
X175182288Y-101168794D01*
X175201667Y-101160166D01*
X175350722Y-101093803D01*
X175350724Y-101093802D01*
X175356752Y-101091118D01*
X175511253Y-100978866D01*
X175604521Y-100875281D01*
X175634621Y-100841852D01*
X175634622Y-100841851D01*
X175639040Y-100836944D01*
X175734527Y-100671556D01*
X175793542Y-100489928D01*
X175813504Y-100300000D01*
X175809574Y-100262606D01*
X175794232Y-100116635D01*
X175794232Y-100116633D01*
X175793542Y-100110072D01*
X175734527Y-99928444D01*
X175639040Y-99763056D01*
X175544898Y-99658500D01*
X175515675Y-99626045D01*
X175515674Y-99626044D01*
X175511253Y-99621134D01*
X175387506Y-99531226D01*
X175362094Y-99512763D01*
X175362093Y-99512762D01*
X175356752Y-99508882D01*
X175350724Y-99506198D01*
X175350722Y-99506197D01*
X175188319Y-99433891D01*
X175188318Y-99433891D01*
X175182288Y-99431206D01*
X175088887Y-99411353D01*
X175001944Y-99392872D01*
X175001939Y-99392872D01*
X174995487Y-99391500D01*
X174804513Y-99391500D01*
X174798061Y-99392872D01*
X174798056Y-99392872D01*
X174711113Y-99411353D01*
X174617712Y-99431206D01*
X174443248Y-99508882D01*
X174437905Y-99512764D01*
X174434692Y-99514619D01*
X174371691Y-99531500D01*
X174051841Y-99531500D01*
X173983720Y-99511498D01*
X173937227Y-99457842D01*
X173927123Y-99387568D01*
X173958203Y-99321192D01*
X173989040Y-99286944D01*
X174084527Y-99121556D01*
X174143542Y-98939928D01*
X174144660Y-98929296D01*
X174160907Y-98774707D01*
X174187920Y-98709050D01*
X174197122Y-98698782D01*
X174377576Y-98518328D01*
X174439888Y-98484302D01*
X174499281Y-98485716D01*
X174525312Y-98492691D01*
X174525319Y-98492692D01*
X174530629Y-98494115D01*
X174750000Y-98513307D01*
X174969371Y-98494115D01*
X175182076Y-98437120D01*
X175381654Y-98344056D01*
X175531500Y-98239132D01*
X175557527Y-98220908D01*
X175557529Y-98220906D01*
X175562038Y-98217749D01*
X175717749Y-98062038D01*
X175721364Y-98056876D01*
X175840899Y-97886162D01*
X175840900Y-97886160D01*
X175844056Y-97881653D01*
X175846379Y-97876671D01*
X175846382Y-97876666D01*
X175901628Y-97758189D01*
X175937120Y-97682076D01*
X175994115Y-97469371D01*
X176013307Y-97250000D01*
X175994115Y-97030629D01*
X175937120Y-96817924D01*
X175880091Y-96695625D01*
X175846382Y-96623334D01*
X175846379Y-96623329D01*
X175844056Y-96618347D01*
X175812786Y-96573689D01*
X175720908Y-96442473D01*
X175720906Y-96442470D01*
X175717749Y-96437962D01*
X175562038Y-96282251D01*
X175537316Y-96264940D01*
X175482759Y-96226739D01*
X175381654Y-96155944D01*
X175182076Y-96062880D01*
X174969371Y-96005885D01*
X174750000Y-95986693D01*
X174530629Y-96005885D01*
X174317924Y-96062880D01*
X174254513Y-96092449D01*
X174123334Y-96153618D01*
X174123329Y-96153621D01*
X174118347Y-96155944D01*
X174113840Y-96159100D01*
X174113838Y-96159101D01*
X173942473Y-96279092D01*
X173942470Y-96279094D01*
X173937962Y-96282251D01*
X173782251Y-96437962D01*
X173779094Y-96442470D01*
X173779092Y-96442473D01*
X173687214Y-96573689D01*
X173655944Y-96618347D01*
X173653621Y-96623329D01*
X173653618Y-96623334D01*
X173613919Y-96708470D01*
X173567002Y-96761755D01*
X173498724Y-96781216D01*
X173430765Y-96760674D01*
X173385529Y-96708470D01*
X173345946Y-96623583D01*
X173340466Y-96614093D01*
X173311589Y-96572851D01*
X173301113Y-96564477D01*
X173287666Y-96571545D01*
X172609210Y-97250000D01*
X172339095Y-97520116D01*
X172276783Y-97554141D01*
X172205967Y-97549076D01*
X172160905Y-97520115D01*
X171890790Y-97250000D01*
X171211613Y-96570824D01*
X171199839Y-96564394D01*
X171187824Y-96573690D01*
X171159534Y-96614093D01*
X171154054Y-96623583D01*
X171114471Y-96708470D01*
X171067554Y-96761755D01*
X170999276Y-96781216D01*
X170931316Y-96760674D01*
X170886081Y-96708470D01*
X170846382Y-96623334D01*
X170846379Y-96623329D01*
X170844056Y-96618347D01*
X170812786Y-96573689D01*
X170720908Y-96442473D01*
X170720906Y-96442470D01*
X170717749Y-96437962D01*
X170562038Y-96282251D01*
X170537316Y-96264940D01*
X170482759Y-96226739D01*
X170442983Y-96198887D01*
X171564477Y-96198887D01*
X171571545Y-96212334D01*
X172237189Y-96877979D01*
X172251132Y-96885592D01*
X172252966Y-96885461D01*
X172259580Y-96881210D01*
X172929180Y-96211609D01*
X172935607Y-96199839D01*
X172926313Y-96187825D01*
X172885912Y-96159536D01*
X172876416Y-96154053D01*
X172686887Y-96065674D01*
X172676595Y-96061928D01*
X172474599Y-96007804D01*
X172463804Y-96005901D01*
X172255475Y-95987674D01*
X172244525Y-95987674D01*
X172036196Y-96005901D01*
X172025401Y-96007804D01*
X171823405Y-96061928D01*
X171813113Y-96065674D01*
X171623583Y-96154054D01*
X171614093Y-96159534D01*
X171572851Y-96188411D01*
X171564477Y-96198887D01*
X170442983Y-96198887D01*
X170381654Y-96155944D01*
X170182076Y-96062880D01*
X169969371Y-96005885D01*
X169750000Y-95986693D01*
X169530629Y-96005885D01*
X169317924Y-96062880D01*
X169254513Y-96092449D01*
X169123334Y-96153618D01*
X169123329Y-96153621D01*
X169118347Y-96155944D01*
X169113840Y-96159100D01*
X169113838Y-96159101D01*
X168942473Y-96279092D01*
X168942470Y-96279094D01*
X168937962Y-96282251D01*
X168782251Y-96437962D01*
X168779094Y-96442470D01*
X168779092Y-96442473D01*
X168687214Y-96573689D01*
X168655944Y-96618347D01*
X168653621Y-96623329D01*
X168653618Y-96623334D01*
X168614195Y-96707878D01*
X168567278Y-96761163D01*
X168499000Y-96780624D01*
X168431040Y-96760082D01*
X168385805Y-96707878D01*
X168346382Y-96623334D01*
X168346379Y-96623329D01*
X168344056Y-96618347D01*
X168312786Y-96573689D01*
X168220908Y-96442473D01*
X168220906Y-96442470D01*
X168217749Y-96437962D01*
X168062038Y-96282251D01*
X168037316Y-96264940D01*
X167982759Y-96226739D01*
X167881654Y-96155944D01*
X167682076Y-96062880D01*
X167469371Y-96005885D01*
X167250000Y-95986693D01*
X167030629Y-96005885D01*
X166817924Y-96062880D01*
X166754513Y-96092449D01*
X166623334Y-96153618D01*
X166623329Y-96153621D01*
X166618347Y-96155944D01*
X166613840Y-96159100D01*
X166613838Y-96159101D01*
X166442473Y-96279092D01*
X166442470Y-96279094D01*
X166437962Y-96282251D01*
X166282251Y-96437962D01*
X166279094Y-96442470D01*
X166279092Y-96442473D01*
X166187214Y-96573689D01*
X166155944Y-96618347D01*
X166153621Y-96623329D01*
X166153618Y-96623334D01*
X166119909Y-96695625D01*
X166062880Y-96817924D01*
X166005885Y-97030629D01*
X165986693Y-97250000D01*
X166005885Y-97469371D01*
X166062880Y-97682076D01*
X166098372Y-97758189D01*
X166153618Y-97876666D01*
X166153621Y-97876671D01*
X166155944Y-97881653D01*
X166159100Y-97886160D01*
X166159101Y-97886162D01*
X166278637Y-98056876D01*
X166282251Y-98062038D01*
X166437962Y-98217749D01*
X166442471Y-98220906D01*
X166442473Y-98220908D01*
X166468500Y-98239132D01*
X166618346Y-98344056D01*
X166817924Y-98437120D01*
X167030629Y-98494115D01*
X167250000Y-98513307D01*
X167469371Y-98494115D01*
X167474681Y-98492692D01*
X167474688Y-98492691D01*
X167500719Y-98485716D01*
X167571696Y-98487406D01*
X167622424Y-98518328D01*
X167802878Y-98698782D01*
X167836904Y-98761094D01*
X167839093Y-98774707D01*
X167855341Y-98929296D01*
X167856458Y-98939928D01*
X167915473Y-99121556D01*
X168010960Y-99286944D01*
X168041797Y-99321192D01*
X168072513Y-99385198D01*
X168063748Y-99455651D01*
X168018285Y-99510182D01*
X167948159Y-99531500D01*
X155051841Y-99531500D01*
X154983720Y-99511498D01*
X154937227Y-99457842D01*
X154927123Y-99387568D01*
X154958203Y-99321192D01*
X154989040Y-99286944D01*
X155084527Y-99121556D01*
X155143542Y-98939928D01*
X155144660Y-98929296D01*
X155160907Y-98774707D01*
X155187920Y-98709050D01*
X155197122Y-98698782D01*
X155377576Y-98518328D01*
X155439888Y-98484302D01*
X155499281Y-98485716D01*
X155525312Y-98492691D01*
X155525319Y-98492692D01*
X155530629Y-98494115D01*
X155750000Y-98513307D01*
X155969371Y-98494115D01*
X156182076Y-98437120D01*
X156381654Y-98344056D01*
X156531500Y-98239132D01*
X156557527Y-98220908D01*
X156557529Y-98220906D01*
X156562038Y-98217749D01*
X156717749Y-98062038D01*
X156721364Y-98056876D01*
X156840899Y-97886162D01*
X156840900Y-97886160D01*
X156844056Y-97881653D01*
X156846379Y-97876671D01*
X156846382Y-97876666D01*
X156901628Y-97758189D01*
X156937120Y-97682076D01*
X156994115Y-97469371D01*
X157013307Y-97250000D01*
X156994115Y-97030629D01*
X156937120Y-96817924D01*
X156880091Y-96695625D01*
X156846382Y-96623334D01*
X156846379Y-96623329D01*
X156844056Y-96618347D01*
X156812786Y-96573689D01*
X156720908Y-96442473D01*
X156720906Y-96442470D01*
X156717749Y-96437962D01*
X156562038Y-96282251D01*
X156537316Y-96264940D01*
X156482759Y-96226739D01*
X156381654Y-96155944D01*
X156182076Y-96062880D01*
X155969371Y-96005885D01*
X155750000Y-95986693D01*
X155530629Y-96005885D01*
X155317924Y-96062880D01*
X155254513Y-96092449D01*
X155123334Y-96153618D01*
X155123329Y-96153621D01*
X155118347Y-96155944D01*
X155113840Y-96159100D01*
X155113838Y-96159101D01*
X154942473Y-96279092D01*
X154942470Y-96279094D01*
X154937962Y-96282251D01*
X154782251Y-96437962D01*
X154779094Y-96442470D01*
X154779092Y-96442473D01*
X154687214Y-96573689D01*
X154655944Y-96618347D01*
X154653621Y-96623329D01*
X154653618Y-96623334D01*
X154613919Y-96708470D01*
X154567002Y-96761755D01*
X154498724Y-96781216D01*
X154430765Y-96760674D01*
X154385529Y-96708470D01*
X154345946Y-96623583D01*
X154340466Y-96614093D01*
X154311589Y-96572851D01*
X154301113Y-96564477D01*
X154287666Y-96571545D01*
X153635059Y-97224151D01*
X153572747Y-97258176D01*
X153548484Y-97261030D01*
X153236573Y-97267269D01*
X152968162Y-97272637D01*
X152899656Y-97254001D01*
X152876548Y-97235758D01*
X152211609Y-96570820D01*
X152199839Y-96564393D01*
X152187824Y-96573689D01*
X152159534Y-96614093D01*
X152154054Y-96623583D01*
X152114471Y-96708470D01*
X152067554Y-96761755D01*
X151999276Y-96781216D01*
X151931316Y-96760674D01*
X151886081Y-96708470D01*
X151846382Y-96623334D01*
X151846379Y-96623329D01*
X151844056Y-96618347D01*
X151812786Y-96573689D01*
X151720908Y-96442473D01*
X151720906Y-96442470D01*
X151717749Y-96437962D01*
X151562038Y-96282251D01*
X151537316Y-96264940D01*
X151482759Y-96226739D01*
X151442983Y-96198887D01*
X152564477Y-96198887D01*
X152571545Y-96212334D01*
X153237189Y-96877979D01*
X153251132Y-96885592D01*
X153252966Y-96885461D01*
X153259580Y-96881210D01*
X153929180Y-96211609D01*
X153935607Y-96199839D01*
X153926313Y-96187825D01*
X153885912Y-96159536D01*
X153876416Y-96154053D01*
X153686887Y-96065674D01*
X153676595Y-96061928D01*
X153474599Y-96007804D01*
X153463804Y-96005901D01*
X153255475Y-95987674D01*
X153244525Y-95987674D01*
X153036196Y-96005901D01*
X153025401Y-96007804D01*
X152823405Y-96061928D01*
X152813113Y-96065674D01*
X152623583Y-96154054D01*
X152614093Y-96159534D01*
X152572851Y-96188411D01*
X152564477Y-96198887D01*
X151442983Y-96198887D01*
X151381654Y-96155944D01*
X151182076Y-96062880D01*
X150969371Y-96005885D01*
X150750000Y-95986693D01*
X150530629Y-96005885D01*
X150317924Y-96062880D01*
X150254513Y-96092449D01*
X150123334Y-96153618D01*
X150123329Y-96153621D01*
X150118347Y-96155944D01*
X150113840Y-96159100D01*
X150113838Y-96159101D01*
X149942473Y-96279092D01*
X149942470Y-96279094D01*
X149937962Y-96282251D01*
X149782251Y-96437962D01*
X149779094Y-96442470D01*
X149779092Y-96442473D01*
X149687214Y-96573689D01*
X149655944Y-96618347D01*
X149653621Y-96623329D01*
X149653618Y-96623334D01*
X149614195Y-96707878D01*
X149567278Y-96761163D01*
X149499000Y-96780624D01*
X149431040Y-96760082D01*
X149385805Y-96707878D01*
X149346382Y-96623334D01*
X149346379Y-96623329D01*
X149344056Y-96618347D01*
X149312786Y-96573689D01*
X149220908Y-96442473D01*
X149220906Y-96442470D01*
X149217749Y-96437962D01*
X149062038Y-96282251D01*
X149037316Y-96264940D01*
X148982759Y-96226739D01*
X148881654Y-96155944D01*
X148682076Y-96062880D01*
X148469371Y-96005885D01*
X148250000Y-95986693D01*
X148030629Y-96005885D01*
X147817924Y-96062880D01*
X147754513Y-96092449D01*
X147647750Y-96142233D01*
X147577558Y-96152894D01*
X147512745Y-96123914D01*
X147473889Y-96064494D01*
X147468500Y-96028038D01*
X147468500Y-95906371D01*
X147488502Y-95838250D01*
X147505405Y-95817276D01*
X147906331Y-95416350D01*
X147969228Y-95382199D01*
X148025824Y-95370169D01*
X148025833Y-95370166D01*
X148032288Y-95368794D01*
X148038319Y-95366109D01*
X148200722Y-95293803D01*
X148200724Y-95293802D01*
X148206752Y-95291118D01*
X148212667Y-95286821D01*
X148320087Y-95208775D01*
X148361253Y-95178866D01*
X148411806Y-95122721D01*
X148484621Y-95041852D01*
X148484622Y-95041851D01*
X148489040Y-95036944D01*
X148584527Y-94871556D01*
X148643542Y-94689928D01*
X148647885Y-94648612D01*
X148662814Y-94506565D01*
X148663504Y-94500000D01*
X148656323Y-94431676D01*
X148644232Y-94316635D01*
X148644232Y-94316633D01*
X148643542Y-94310072D01*
X148584527Y-94128444D01*
X148489040Y-93963056D01*
X148361253Y-93821134D01*
X148206752Y-93708882D01*
X148200724Y-93706198D01*
X148200722Y-93706197D01*
X148038319Y-93633891D01*
X148038318Y-93633891D01*
X148032288Y-93631206D01*
X147938887Y-93611353D01*
X147851944Y-93592872D01*
X147851939Y-93592872D01*
X147845487Y-93591500D01*
X147654513Y-93591500D01*
X147648061Y-93592872D01*
X147648056Y-93592872D01*
X147561113Y-93611353D01*
X147467712Y-93631206D01*
X147461682Y-93633891D01*
X147461681Y-93633891D01*
X147299278Y-93706197D01*
X147299276Y-93706198D01*
X147293248Y-93708882D01*
X147138747Y-93821134D01*
X147010960Y-93963056D01*
X146915473Y-94128444D01*
X146874442Y-94254725D01*
X146860613Y-94297285D01*
X146829875Y-94347444D01*
X146221089Y-94956230D01*
X146206677Y-94968616D01*
X146195082Y-94977149D01*
X146195077Y-94977154D01*
X146189182Y-94981492D01*
X146184443Y-94987070D01*
X146184440Y-94987073D01*
X146154965Y-95021768D01*
X146148035Y-95029284D01*
X146142340Y-95034979D01*
X146140060Y-95037861D01*
X146124719Y-95057251D01*
X146121928Y-95060655D01*
X146079409Y-95110703D01*
X146074667Y-95116285D01*
X146071339Y-95122801D01*
X146067972Y-95127850D01*
X146064805Y-95132979D01*
X146060266Y-95138716D01*
X146029345Y-95204875D01*
X146027442Y-95208769D01*
X145994231Y-95273808D01*
X145992492Y-95280916D01*
X145990393Y-95286559D01*
X145988476Y-95292322D01*
X145985378Y-95298950D01*
X145983888Y-95306112D01*
X145983888Y-95306113D01*
X145981486Y-95317660D01*
X145970565Y-95370169D01*
X145970514Y-95370412D01*
X145969544Y-95374696D01*
X145952192Y-95445610D01*
X145951500Y-95456764D01*
X145951464Y-95456762D01*
X145951225Y-95460742D01*
X145950849Y-95464956D01*
X145949360Y-95472115D01*
X145950292Y-95506565D01*
X145951454Y-95549521D01*
X145951500Y-95552928D01*
X145951500Y-99405500D01*
X145931498Y-99473621D01*
X145877842Y-99520114D01*
X145825500Y-99531500D01*
X140455982Y-99531500D01*
X140387861Y-99511498D01*
X140341368Y-99457842D01*
X140331264Y-99387568D01*
X140336149Y-99366564D01*
X140391502Y-99196207D01*
X140391504Y-99196199D01*
X140393542Y-99189928D01*
X140400379Y-99124880D01*
X140427392Y-99059223D01*
X140436594Y-99048956D01*
X141621234Y-97864316D01*
X141633625Y-97853449D01*
X141652437Y-97839014D01*
X141658987Y-97833988D01*
X141683474Y-97802076D01*
X141683480Y-97802070D01*
X141751496Y-97713430D01*
X141751497Y-97713428D01*
X141756524Y-97706877D01*
X141817838Y-97558852D01*
X141826184Y-97495458D01*
X141833500Y-97439886D01*
X141833500Y-97439881D01*
X141838750Y-97400001D01*
X141834578Y-97368308D01*
X141833500Y-97351865D01*
X141833500Y-94704936D01*
X141834578Y-94688490D01*
X141837672Y-94664988D01*
X141838750Y-94656800D01*
X141833500Y-94616922D01*
X141833500Y-94616915D01*
X141817838Y-94497950D01*
X141756524Y-94349925D01*
X141716132Y-94297285D01*
X141684863Y-94256534D01*
X141684854Y-94256523D01*
X141683486Y-94254739D01*
X141683474Y-94254725D01*
X141664015Y-94229366D01*
X141658987Y-94222813D01*
X141652432Y-94217783D01*
X141633621Y-94203348D01*
X141621230Y-94192481D01*
X140307515Y-92878766D01*
X140296648Y-92866375D01*
X140282213Y-92847563D01*
X140277187Y-92841013D01*
X140245275Y-92816526D01*
X140245272Y-92816523D01*
X140241632Y-92813730D01*
X140156629Y-92748504D01*
X140156627Y-92748503D01*
X140150076Y-92743476D01*
X140002051Y-92682162D01*
X139993864Y-92681084D01*
X139993863Y-92681084D01*
X139982658Y-92679609D01*
X139951462Y-92675502D01*
X139883085Y-92666500D01*
X139883082Y-92666500D01*
X139883074Y-92666499D01*
X139851389Y-92662328D01*
X139843200Y-92661250D01*
X139811507Y-92665422D01*
X139795064Y-92666500D01*
X138826000Y-92666500D01*
X138757879Y-92646498D01*
X138711386Y-92592842D01*
X138700000Y-92540500D01*
X138700000Y-92209501D01*
X138720002Y-92141380D01*
X138773658Y-92094887D01*
X138826000Y-92083501D01*
X145570756Y-92083501D01*
X145638877Y-92103503D01*
X145679875Y-92146501D01*
X145760960Y-92286944D01*
X145765378Y-92291851D01*
X145765379Y-92291852D01*
X145884325Y-92423955D01*
X145888747Y-92428866D01*
X146043248Y-92541118D01*
X146049276Y-92543802D01*
X146049278Y-92543803D01*
X146159490Y-92592872D01*
X146217712Y-92618794D01*
X146311113Y-92638647D01*
X146398056Y-92657128D01*
X146398061Y-92657128D01*
X146404513Y-92658500D01*
X146595487Y-92658500D01*
X146601939Y-92657128D01*
X146601944Y-92657128D01*
X146688887Y-92638647D01*
X146782288Y-92618794D01*
X146840510Y-92592872D01*
X146950722Y-92543803D01*
X146950724Y-92543802D01*
X146956752Y-92541118D01*
X147111253Y-92428866D01*
X147115675Y-92423955D01*
X147234621Y-92291852D01*
X147234622Y-92291851D01*
X147239040Y-92286944D01*
X147334527Y-92121556D01*
X147393542Y-91939928D01*
X147413504Y-91750000D01*
X147400146Y-91622909D01*
X147394232Y-91566635D01*
X147394232Y-91566633D01*
X147393542Y-91560072D01*
X147334527Y-91378444D01*
X147328212Y-91367505D01*
X147296743Y-91313000D01*
X147280005Y-91244005D01*
X147296743Y-91187000D01*
X147331223Y-91127279D01*
X147331224Y-91127278D01*
X147334527Y-91121556D01*
X147393542Y-90939928D01*
X147394807Y-90927898D01*
X147412814Y-90756565D01*
X147413504Y-90750000D01*
X147393542Y-90560072D01*
X147334527Y-90378444D01*
X147330478Y-90371430D01*
X147242341Y-90218774D01*
X147239040Y-90213056D01*
X147221390Y-90193453D01*
X147115675Y-90076045D01*
X147115674Y-90076044D01*
X147111253Y-90071134D01*
X147097905Y-90061436D01*
X147054551Y-90005213D01*
X147048476Y-89934477D01*
X147081608Y-89871685D01*
X147143428Y-89836774D01*
X147171966Y-89833500D01*
X173602561Y-89833500D01*
X173670682Y-89853502D01*
X173691656Y-89870405D01*
X177629595Y-93808344D01*
X177663621Y-93870656D01*
X177666500Y-93897439D01*
X177666500Y-96965500D01*
X177646498Y-97033621D01*
X177592842Y-97080114D01*
X177540500Y-97091500D01*
X177379513Y-97091500D01*
X177373061Y-97092872D01*
X177373056Y-97092872D01*
X177286112Y-97111353D01*
X177192712Y-97131206D01*
X177186682Y-97133891D01*
X177186681Y-97133891D01*
X177024278Y-97206197D01*
X177024276Y-97206198D01*
X177018248Y-97208882D01*
X177012907Y-97212762D01*
X177012906Y-97212763D01*
X176974840Y-97240420D01*
X176863747Y-97321134D01*
X176859326Y-97326044D01*
X176859325Y-97326045D01*
X176785362Y-97408190D01*
X176735960Y-97463056D01*
X176640473Y-97628444D01*
X176581458Y-97810072D01*
X176580768Y-97816633D01*
X176580768Y-97816635D01*
X176573461Y-97886162D01*
X176561496Y-98000000D01*
X176562186Y-98006565D01*
X176580220Y-98178145D01*
X176581458Y-98189928D01*
X176640473Y-98371556D01*
X176643776Y-98377278D01*
X176643777Y-98377279D01*
X176678257Y-98437000D01*
X176694995Y-98505995D01*
X176678257Y-98563000D01*
X176661803Y-98591500D01*
X176640473Y-98628444D01*
X176581458Y-98810072D01*
X176580768Y-98816633D01*
X176580768Y-98816635D01*
X176567810Y-98939928D01*
X176561496Y-99000000D01*
X176562186Y-99006565D01*
X176569958Y-99080507D01*
X176581458Y-99189928D01*
X176640473Y-99371556D01*
X176643776Y-99377278D01*
X176643777Y-99377279D01*
X176651988Y-99391500D01*
X176735960Y-99536944D01*
X176863747Y-99678866D01*
X177018248Y-99791118D01*
X177024276Y-99793802D01*
X177024278Y-99793803D01*
X177184799Y-99865271D01*
X177192712Y-99868794D01*
X177286112Y-99888647D01*
X177373056Y-99907128D01*
X177373061Y-99907128D01*
X177379513Y-99908500D01*
X177570487Y-99908500D01*
X177576939Y-99907128D01*
X177576944Y-99907128D01*
X177663888Y-99888647D01*
X177757288Y-99868794D01*
X177765201Y-99865271D01*
X177925722Y-99793803D01*
X177925724Y-99793802D01*
X177931752Y-99791118D01*
X178086253Y-99678866D01*
X178214040Y-99536944D01*
X178298012Y-99391500D01*
X178306223Y-99377279D01*
X178306224Y-99377278D01*
X178309527Y-99371556D01*
X178368542Y-99189928D01*
X178380043Y-99080507D01*
X178387814Y-99006565D01*
X178388504Y-99000000D01*
X178388316Y-98998215D01*
X178407816Y-98931805D01*
X178424718Y-98910831D01*
X179121229Y-98214319D01*
X179133621Y-98203451D01*
X179152436Y-98189014D01*
X179152437Y-98189013D01*
X179158987Y-98183987D01*
X179227172Y-98095127D01*
X179256524Y-98056876D01*
X179317838Y-97908851D01*
X179320391Y-97889457D01*
X179320825Y-97886162D01*
X179333500Y-97789886D01*
X179333500Y-97789880D01*
X179337672Y-97758189D01*
X179338750Y-97750000D01*
X179334578Y-97718307D01*
X179333500Y-97701864D01*
X179333500Y-93454936D01*
X179334578Y-93438490D01*
X179337672Y-93414988D01*
X179338750Y-93406800D01*
X179333500Y-93366922D01*
X179333500Y-93366915D01*
X179326881Y-93316635D01*
X179318916Y-93256138D01*
X179317838Y-93247950D01*
X179280787Y-93158500D01*
X179259684Y-93107553D01*
X179259683Y-93107551D01*
X179256524Y-93099925D01*
X179227174Y-93061676D01*
X179183477Y-93004728D01*
X179183474Y-93004725D01*
X179183471Y-93004721D01*
X179164016Y-92979366D01*
X179164013Y-92979363D01*
X179158987Y-92972813D01*
X179146272Y-92963056D01*
X179133621Y-92953348D01*
X179121230Y-92942481D01*
X174557515Y-88378766D01*
X174546648Y-88366375D01*
X174532213Y-88347563D01*
X174527187Y-88341013D01*
X174495275Y-88316526D01*
X174495272Y-88316523D01*
X174490075Y-88312535D01*
X174406629Y-88248504D01*
X174406627Y-88248503D01*
X174400076Y-88243476D01*
X174252051Y-88182162D01*
X174243864Y-88181084D01*
X174243863Y-88181084D01*
X174232658Y-88179609D01*
X174201462Y-88175502D01*
X174133085Y-88166500D01*
X174133082Y-88166500D01*
X174133074Y-88166499D01*
X174101389Y-88162328D01*
X174093200Y-88161250D01*
X174061507Y-88165422D01*
X174045064Y-88166500D01*
X115397439Y-88166500D01*
X115329318Y-88146498D01*
X115308344Y-88129595D01*
X110749495Y-83570746D01*
X110715469Y-83508434D01*
X110720534Y-83437619D01*
X110763081Y-83380783D01*
X110787342Y-83366544D01*
X110950719Y-83293805D01*
X110950726Y-83293801D01*
X110956752Y-83291118D01*
X111111253Y-83178866D01*
X111239040Y-83036944D01*
X111334527Y-82871556D01*
X111393542Y-82689928D01*
X111413504Y-82500000D01*
X111393542Y-82310072D01*
X111334527Y-82128444D01*
X111239040Y-81963056D01*
X111142509Y-81855847D01*
X111120631Y-81815043D01*
X111118474Y-81815897D01*
X111102198Y-81774787D01*
X111098354Y-81763560D01*
X111088230Y-81728717D01*
X111086018Y-81721102D01*
X111075707Y-81703667D01*
X111067012Y-81685919D01*
X111059552Y-81667078D01*
X111033564Y-81631308D01*
X111027048Y-81621388D01*
X111008580Y-81590160D01*
X111008578Y-81590157D01*
X111004542Y-81583333D01*
X110990221Y-81569012D01*
X110977380Y-81553978D01*
X110970131Y-81544001D01*
X110965472Y-81537588D01*
X110931395Y-81509397D01*
X110922616Y-81501407D01*
X109303957Y-79882747D01*
X109296417Y-79874461D01*
X109292305Y-79867982D01*
X109279433Y-79855894D01*
X109242654Y-79821357D01*
X109239812Y-79818602D01*
X109220075Y-79798865D01*
X109216878Y-79796385D01*
X109207856Y-79788680D01*
X109194427Y-79776069D01*
X109175626Y-79758414D01*
X109168680Y-79754595D01*
X109168677Y-79754593D01*
X109157871Y-79748652D01*
X109141352Y-79737801D01*
X109140888Y-79737441D01*
X109125346Y-79725386D01*
X109118077Y-79722241D01*
X109118073Y-79722238D01*
X109084768Y-79707826D01*
X109074118Y-79702609D01*
X109035365Y-79681305D01*
X109015742Y-79676267D01*
X108997039Y-79669863D01*
X108985725Y-79664967D01*
X108985724Y-79664967D01*
X108978450Y-79661819D01*
X108970627Y-79660580D01*
X108970617Y-79660577D01*
X108934781Y-79654901D01*
X108923161Y-79652495D01*
X108888016Y-79643472D01*
X108888015Y-79643472D01*
X108880335Y-79641500D01*
X108860081Y-79641500D01*
X108840370Y-79639949D01*
X108828191Y-79638020D01*
X108820362Y-79636780D01*
X108791091Y-79639547D01*
X108776344Y-79640941D01*
X108764486Y-79641500D01*
X103303767Y-79641500D01*
X103292584Y-79640973D01*
X103285091Y-79639298D01*
X103277165Y-79639547D01*
X103277164Y-79639547D01*
X103217001Y-79641438D01*
X103213043Y-79641500D01*
X103185144Y-79641500D01*
X103181154Y-79642004D01*
X103169320Y-79642936D01*
X103125111Y-79644326D01*
X103117497Y-79646538D01*
X103117492Y-79646539D01*
X103105659Y-79649977D01*
X103086296Y-79653988D01*
X103066203Y-79656526D01*
X103058836Y-79659443D01*
X103058831Y-79659444D01*
X103025092Y-79672802D01*
X103013865Y-79676646D01*
X102971407Y-79688982D01*
X102964581Y-79693019D01*
X102953972Y-79699293D01*
X102936224Y-79707988D01*
X102917383Y-79715448D01*
X102910967Y-79720110D01*
X102910966Y-79720110D01*
X102881613Y-79741436D01*
X102871693Y-79747952D01*
X102840465Y-79766420D01*
X102840462Y-79766422D01*
X102833638Y-79770458D01*
X102819317Y-79784779D01*
X102804284Y-79797619D01*
X102787893Y-79809528D01*
X102782840Y-79815636D01*
X102759708Y-79843598D01*
X102751718Y-79852378D01*
X102618423Y-79985673D01*
X102556111Y-80019699D01*
X102485296Y-80014634D01*
X102428460Y-79972087D01*
X102404018Y-79909748D01*
X102399629Y-79867982D01*
X102398358Y-79855894D01*
X102394232Y-79816635D01*
X102394232Y-79816633D01*
X102393542Y-79810072D01*
X102334527Y-79628444D01*
X102239040Y-79463056D01*
X102111253Y-79321134D01*
X101956752Y-79208882D01*
X101950724Y-79206198D01*
X101950722Y-79206197D01*
X101788319Y-79133891D01*
X101788318Y-79133891D01*
X101782288Y-79131206D01*
X101688888Y-79111353D01*
X101601944Y-79092872D01*
X101601939Y-79092872D01*
X101595487Y-79091500D01*
X101404513Y-79091500D01*
X101398053Y-79092873D01*
X101398054Y-79092873D01*
X101338312Y-79105571D01*
X101267522Y-79100169D01*
X101218481Y-79066636D01*
X101163042Y-79005064D01*
X101008541Y-78892812D01*
X101002513Y-78890128D01*
X101002511Y-78890127D01*
X100840108Y-78817821D01*
X100840107Y-78817821D01*
X100834077Y-78815136D01*
X100734104Y-78793886D01*
X100653733Y-78776802D01*
X100653728Y-78776802D01*
X100647276Y-78775430D01*
X100456302Y-78775430D01*
X100449850Y-78776802D01*
X100449845Y-78776802D01*
X100369474Y-78793886D01*
X100269501Y-78815136D01*
X100263471Y-78817821D01*
X100263470Y-78817821D01*
X100101067Y-78890127D01*
X100101065Y-78890128D01*
X100095037Y-78892812D01*
X99940536Y-79005064D01*
X99936118Y-79009971D01*
X99936114Y-79009975D01*
X99818612Y-79140475D01*
X99812749Y-79146986D01*
X99717262Y-79312374D01*
X99658247Y-79494002D01*
X99657558Y-79500561D01*
X99657557Y-79500564D01*
X99646528Y-79605501D01*
X99619515Y-79671157D01*
X99561293Y-79711787D01*
X99490348Y-79714490D01*
X99448802Y-79695036D01*
X99448376Y-79694672D01*
X99444163Y-79692090D01*
X99444162Y-79692089D01*
X99236722Y-79564970D01*
X99232502Y-79562384D01*
X99227932Y-79560491D01*
X99227928Y-79560489D01*
X99003164Y-79467389D01*
X99003162Y-79467388D01*
X98998591Y-79465495D01*
X98913968Y-79445179D01*
X98757216Y-79407546D01*
X98757210Y-79407545D01*
X98752403Y-79406391D01*
X98652584Y-79398535D01*
X98565655Y-79391693D01*
X98565648Y-79391693D01*
X98563199Y-79391500D01*
X98436801Y-79391500D01*
X98434352Y-79391693D01*
X98434345Y-79391693D01*
X98347416Y-79398535D01*
X98247597Y-79406391D01*
X98242790Y-79407545D01*
X98242784Y-79407546D01*
X98086032Y-79445179D01*
X98001409Y-79465495D01*
X97996838Y-79467388D01*
X97996836Y-79467389D01*
X97772072Y-79560489D01*
X97772068Y-79560491D01*
X97767498Y-79562384D01*
X97551624Y-79694672D01*
X97359102Y-79859102D01*
X97194672Y-80051624D01*
X97062384Y-80267498D01*
X97060491Y-80272068D01*
X97060489Y-80272072D01*
X96967389Y-80496836D01*
X96965495Y-80501409D01*
X96964340Y-80506221D01*
X96916068Y-80707290D01*
X96906391Y-80747597D01*
X96886526Y-81000000D01*
X96886914Y-81004930D01*
X96899612Y-81166269D01*
X96900000Y-81176155D01*
X96900000Y-83760270D01*
X96879998Y-83828391D01*
X96867636Y-83844580D01*
X96760960Y-83963056D01*
X96665473Y-84128444D01*
X96606458Y-84310072D01*
X96586496Y-84500000D01*
X96587186Y-84506565D01*
X96602993Y-84656956D01*
X96606458Y-84689928D01*
X96665473Y-84871556D01*
X96760960Y-85036944D01*
X96888747Y-85178866D01*
X96987843Y-85250864D01*
X97025489Y-85278215D01*
X97043248Y-85291118D01*
X97049276Y-85293802D01*
X97049278Y-85293803D01*
X97074423Y-85304998D01*
X97217712Y-85368794D01*
X97311113Y-85388647D01*
X97398056Y-85407128D01*
X97398061Y-85407128D01*
X97404513Y-85408500D01*
X97595487Y-85408500D01*
X97601939Y-85407128D01*
X97601944Y-85407128D01*
X97688887Y-85388647D01*
X97782288Y-85368794D01*
X97925577Y-85304998D01*
X97950722Y-85293803D01*
X97950724Y-85293802D01*
X97956752Y-85291118D01*
X97974512Y-85278215D01*
X98012157Y-85250864D01*
X98111253Y-85178866D01*
X98239040Y-85036944D01*
X98334527Y-84871556D01*
X98380167Y-84731090D01*
X98420241Y-84672486D01*
X98485637Y-84644849D01*
X98555594Y-84656956D01*
X98607900Y-84704962D01*
X98619832Y-84731089D01*
X98665473Y-84871556D01*
X98760960Y-85036944D01*
X98888747Y-85178866D01*
X98987843Y-85250864D01*
X99025489Y-85278215D01*
X99043248Y-85291118D01*
X99049276Y-85293802D01*
X99049278Y-85293803D01*
X99074423Y-85304998D01*
X99217712Y-85368794D01*
X99311113Y-85388647D01*
X99398056Y-85407128D01*
X99398061Y-85407128D01*
X99404513Y-85408500D01*
X99595487Y-85408500D01*
X99601939Y-85407128D01*
X99601944Y-85407128D01*
X99688887Y-85388647D01*
X99782288Y-85368794D01*
X99925577Y-85304998D01*
X99950722Y-85293803D01*
X99950724Y-85293802D01*
X99956752Y-85291118D01*
X99974512Y-85278215D01*
X100012157Y-85250864D01*
X100111253Y-85178866D01*
X100239040Y-85036944D01*
X100334527Y-84871556D01*
X100380167Y-84731090D01*
X100420241Y-84672486D01*
X100485637Y-84644849D01*
X100555594Y-84656956D01*
X100607900Y-84704962D01*
X100619832Y-84731089D01*
X100665473Y-84871556D01*
X100760960Y-85036944D01*
X100888747Y-85178866D01*
X100987843Y-85250864D01*
X101025489Y-85278215D01*
X101043248Y-85291118D01*
X101049276Y-85293802D01*
X101049278Y-85293803D01*
X101074423Y-85304998D01*
X101217712Y-85368794D01*
X101311113Y-85388647D01*
X101398056Y-85407128D01*
X101398061Y-85407128D01*
X101404513Y-85408500D01*
X101595487Y-85408500D01*
X101601939Y-85407128D01*
X101601944Y-85407128D01*
X101738554Y-85378090D01*
X101809345Y-85383492D01*
X101865977Y-85426309D01*
X101890471Y-85492946D01*
X101890751Y-85501337D01*
X101890751Y-88021089D01*
X101870749Y-88089210D01*
X101817093Y-88135703D01*
X101763150Y-88145878D01*
X101763150Y-88147000D01*
X101452115Y-88147000D01*
X101436876Y-88151475D01*
X101435671Y-88152865D01*
X101434000Y-88160548D01*
X101434000Y-89308000D01*
X101413998Y-89376121D01*
X101360342Y-89422614D01*
X101308000Y-89434000D01*
X99671014Y-89434000D01*
X99657483Y-89437973D01*
X99656363Y-89445768D01*
X99690846Y-89562932D01*
X99695439Y-89574300D01*
X99783586Y-89742911D01*
X99790302Y-89753173D01*
X99909516Y-89901444D01*
X99918101Y-89910211D01*
X99938815Y-89927593D01*
X99978141Y-89986703D01*
X99979267Y-90057691D01*
X99962035Y-90094936D01*
X99893049Y-90196447D01*
X99887520Y-90204582D01*
X99884988Y-90210911D01*
X99884987Y-90210914D01*
X99881422Y-90219828D01*
X99818249Y-90377771D01*
X99803749Y-90465356D01*
X99789109Y-90553794D01*
X99787784Y-90561795D01*
X99788141Y-90568611D01*
X99788141Y-90568615D01*
X99792837Y-90658205D01*
X99797547Y-90748067D01*
X99847080Y-90927898D01*
X99934075Y-91092898D01*
X99938480Y-91098111D01*
X99938483Y-91098115D01*
X100050064Y-91230153D01*
X100050068Y-91230157D01*
X100054471Y-91235367D01*
X100059895Y-91239514D01*
X100059896Y-91239515D01*
X100197231Y-91344516D01*
X100197235Y-91344519D01*
X100202652Y-91348660D01*
X100371704Y-91427490D01*
X100553740Y-91468180D01*
X100559463Y-91468500D01*
X100696596Y-91468500D01*
X100699990Y-91468131D01*
X100699995Y-91468131D01*
X100760393Y-91461570D01*
X100830275Y-91474098D01*
X100882291Y-91522419D01*
X100900000Y-91586833D01*
X100900000Y-92050864D01*
X100879998Y-92118985D01*
X100863095Y-92139959D01*
X100403935Y-92599119D01*
X100341623Y-92633145D01*
X100282505Y-92630186D01*
X100282288Y-92631206D01*
X100275947Y-92629858D01*
X100275946Y-92629858D01*
X100194903Y-92612632D01*
X100101944Y-92592872D01*
X100101939Y-92592872D01*
X100095487Y-92591500D01*
X99904513Y-92591500D01*
X99898061Y-92592872D01*
X99898056Y-92592872D01*
X99811112Y-92611353D01*
X99717712Y-92631206D01*
X99711682Y-92633891D01*
X99711681Y-92633891D01*
X99549278Y-92706197D01*
X99549276Y-92706198D01*
X99543248Y-92708882D01*
X99388747Y-92821134D01*
X99384326Y-92826044D01*
X99384325Y-92826045D01*
X99288249Y-92932749D01*
X99260960Y-92963056D01*
X99215891Y-93041118D01*
X99172595Y-93116109D01*
X99165473Y-93128444D01*
X99106458Y-93310072D01*
X99105768Y-93316633D01*
X99105768Y-93316635D01*
X99095431Y-93414988D01*
X99086496Y-93500000D01*
X99106458Y-93689928D01*
X99165473Y-93871556D01*
X99168776Y-93877278D01*
X99168777Y-93877279D01*
X99203257Y-93937000D01*
X99219995Y-94005995D01*
X99203257Y-94063000D01*
X99165473Y-94128444D01*
X99106458Y-94310072D01*
X99105768Y-94316633D01*
X99105768Y-94316635D01*
X99093677Y-94431676D01*
X99086496Y-94500000D01*
X99087186Y-94506565D01*
X99102116Y-94648612D01*
X99106458Y-94689928D01*
X99165473Y-94871556D01*
X99168776Y-94877278D01*
X99168777Y-94877279D01*
X99203257Y-94937000D01*
X99219995Y-95005995D01*
X99203257Y-95063000D01*
X99165473Y-95128444D01*
X99106458Y-95310072D01*
X99105768Y-95316633D01*
X99105768Y-95316635D01*
X99103515Y-95338072D01*
X99091041Y-95456762D01*
X99089093Y-95475292D01*
X99062080Y-95540949D01*
X99052879Y-95551217D01*
X98786819Y-95817276D01*
X98607742Y-95996353D01*
X98599463Y-96003887D01*
X98592982Y-96008000D01*
X98546357Y-96057651D01*
X98543602Y-96060493D01*
X98523865Y-96080230D01*
X98521385Y-96083427D01*
X98513682Y-96092447D01*
X98483414Y-96124679D01*
X98479595Y-96131625D01*
X98479593Y-96131628D01*
X98473652Y-96142434D01*
X98462801Y-96158953D01*
X98450386Y-96174959D01*
X98447241Y-96182228D01*
X98447238Y-96182232D01*
X98432826Y-96215537D01*
X98427609Y-96226187D01*
X98406305Y-96264940D01*
X98404334Y-96272615D01*
X98404334Y-96272616D01*
X98401267Y-96284562D01*
X98394863Y-96303266D01*
X98386819Y-96321855D01*
X98385580Y-96329678D01*
X98385577Y-96329688D01*
X98379901Y-96365524D01*
X98377495Y-96377144D01*
X98366500Y-96419970D01*
X98366500Y-96440224D01*
X98364949Y-96459934D01*
X98361780Y-96479943D01*
X98362526Y-96487835D01*
X98365941Y-96523961D01*
X98366500Y-96535819D01*
X98366500Y-96907352D01*
X98346498Y-96975473D01*
X98292842Y-97021966D01*
X98222568Y-97032070D01*
X98159509Y-97003873D01*
X98116162Y-96967501D01*
X98106031Y-96960563D01*
X97939308Y-96868906D01*
X97928038Y-96864076D01*
X97746685Y-96806548D01*
X97734691Y-96803998D01*
X97586650Y-96787393D01*
X97579626Y-96787000D01*
X97272115Y-96787000D01*
X97256876Y-96791475D01*
X97255671Y-96792865D01*
X97254000Y-96800548D01*
X97254000Y-97948000D01*
X97233998Y-98016121D01*
X97180342Y-98062614D01*
X97128000Y-98074000D01*
X96872000Y-98074000D01*
X96803879Y-98053998D01*
X96757386Y-98000342D01*
X96746000Y-97948000D01*
X96746000Y-96805115D01*
X96741525Y-96789876D01*
X96740135Y-96788671D01*
X96732452Y-96787000D01*
X96427110Y-96787000D01*
X96420965Y-96787300D01*
X96279519Y-96801170D01*
X96267478Y-96803554D01*
X96170917Y-96832707D01*
X96099923Y-96833248D01*
X96039906Y-96795320D01*
X96009923Y-96730965D01*
X96008500Y-96712085D01*
X96008500Y-90287949D01*
X96028502Y-90219828D01*
X96082158Y-90173335D01*
X96152432Y-90163231D01*
X96172599Y-90167847D01*
X96253318Y-90193453D01*
X96265309Y-90196002D01*
X96413350Y-90212607D01*
X96420374Y-90213000D01*
X96727885Y-90213000D01*
X96743124Y-90208525D01*
X96744329Y-90207135D01*
X96746000Y-90199452D01*
X96746000Y-90194885D01*
X97254000Y-90194885D01*
X97258475Y-90210124D01*
X97259865Y-90211329D01*
X97267548Y-90213000D01*
X97572890Y-90213000D01*
X97579035Y-90212700D01*
X97720481Y-90198830D01*
X97732519Y-90196447D01*
X97914651Y-90141458D01*
X97925993Y-90136783D01*
X98093977Y-90047465D01*
X98104193Y-90040678D01*
X98251634Y-89920428D01*
X98260338Y-89911784D01*
X98381610Y-89765191D01*
X98388470Y-89755020D01*
X98478962Y-89587658D01*
X98483714Y-89576353D01*
X98522422Y-89451308D01*
X98522628Y-89437205D01*
X98515873Y-89434000D01*
X97272115Y-89434000D01*
X97256876Y-89438475D01*
X97255671Y-89439865D01*
X97254000Y-89447548D01*
X97254000Y-90194885D01*
X96746000Y-90194885D01*
X96746000Y-88907885D01*
X97254000Y-88907885D01*
X97258475Y-88923124D01*
X97259865Y-88924329D01*
X97267548Y-88926000D01*
X98508986Y-88926000D01*
X98519901Y-88922795D01*
X99657372Y-88922795D01*
X99664127Y-88926000D01*
X100907885Y-88926000D01*
X100923124Y-88921525D01*
X100924329Y-88920135D01*
X100926000Y-88912452D01*
X100926000Y-88165115D01*
X100921525Y-88149876D01*
X100920135Y-88148671D01*
X100912452Y-88147000D01*
X100607110Y-88147000D01*
X100600965Y-88147300D01*
X100459519Y-88161170D01*
X100447481Y-88163553D01*
X100265349Y-88218542D01*
X100254007Y-88223217D01*
X100086023Y-88312535D01*
X100075807Y-88319322D01*
X99928366Y-88439572D01*
X99919662Y-88448216D01*
X99798390Y-88594809D01*
X99791530Y-88604980D01*
X99701038Y-88772342D01*
X99696286Y-88783647D01*
X99657578Y-88908692D01*
X99657372Y-88922795D01*
X98519901Y-88922795D01*
X98522517Y-88922027D01*
X98523637Y-88914232D01*
X98489154Y-88797068D01*
X98484561Y-88785700D01*
X98396414Y-88617089D01*
X98389698Y-88606827D01*
X98270485Y-88458557D01*
X98261897Y-88449787D01*
X98116162Y-88327501D01*
X98106031Y-88320563D01*
X97939308Y-88228906D01*
X97928038Y-88224076D01*
X97746685Y-88166548D01*
X97734691Y-88163998D01*
X97586650Y-88147393D01*
X97579626Y-88147000D01*
X97272115Y-88147000D01*
X97256876Y-88151475D01*
X97255671Y-88152865D01*
X97254000Y-88160548D01*
X97254000Y-88907885D01*
X96746000Y-88907885D01*
X96746000Y-88165115D01*
X96741525Y-88149876D01*
X96740135Y-88148671D01*
X96732452Y-88147000D01*
X96427110Y-88147000D01*
X96420965Y-88147300D01*
X96279519Y-88161170D01*
X96267478Y-88163554D01*
X96170917Y-88192707D01*
X96099923Y-88193248D01*
X96039906Y-88155320D01*
X96009923Y-88090965D01*
X96008500Y-88072085D01*
X96008500Y-81053250D01*
X96010246Y-81032345D01*
X96012770Y-81017344D01*
X96012770Y-81017341D01*
X96013576Y-81012552D01*
X96013729Y-81000000D01*
X96013040Y-80995186D01*
X96013039Y-80995177D01*
X96011869Y-80987006D01*
X96010827Y-80961540D01*
X96026206Y-80707290D01*
X96028040Y-80692186D01*
X96062119Y-80506221D01*
X96079525Y-80411240D01*
X96083164Y-80396473D01*
X96121929Y-80272072D01*
X96168142Y-80123769D01*
X96173534Y-80109555D01*
X96290758Y-79849092D01*
X96297828Y-79835621D01*
X96308117Y-79818602D01*
X96352655Y-79744927D01*
X96445595Y-79591187D01*
X96454238Y-79578666D01*
X96630385Y-79353829D01*
X96640475Y-79342440D01*
X96842440Y-79140475D01*
X96853829Y-79130385D01*
X97078666Y-78954238D01*
X97091187Y-78945595D01*
X97335621Y-78797828D01*
X97349094Y-78790757D01*
X97380101Y-78776802D01*
X97609555Y-78673534D01*
X97623769Y-78668142D01*
X97896474Y-78583164D01*
X97911240Y-78579525D01*
X98120214Y-78541229D01*
X98192186Y-78528040D01*
X98207290Y-78526206D01*
X98457904Y-78511047D01*
X98484716Y-78512308D01*
X98484852Y-78512310D01*
X98493724Y-78513691D01*
X98502626Y-78512527D01*
X98502628Y-78512527D01*
X98517677Y-78510559D01*
X98525286Y-78509564D01*
X98541621Y-78508500D01*
X110456310Y-78508500D01*
X110524431Y-78528502D01*
G37*
G04 #@! TD.AperFunction*
G04 #@! TA.AperFunction,Conductor*
G36*
X139420682Y-94353502D02*
G01*
X139441656Y-94370405D01*
X140129595Y-95058344D01*
X140163621Y-95120656D01*
X140166500Y-95147439D01*
X140166500Y-96909361D01*
X140146498Y-96977482D01*
X140129595Y-96998456D01*
X139991981Y-97136070D01*
X139929669Y-97170096D01*
X139858854Y-97165031D01*
X139851637Y-97162082D01*
X139788319Y-97133891D01*
X139788317Y-97133890D01*
X139782288Y-97131206D01*
X139688888Y-97111353D01*
X139601944Y-97092872D01*
X139601939Y-97092872D01*
X139595487Y-97091500D01*
X139404513Y-97091500D01*
X139398061Y-97092872D01*
X139398056Y-97092872D01*
X139311112Y-97111353D01*
X139217712Y-97131206D01*
X139211682Y-97133891D01*
X139211681Y-97133891D01*
X139049278Y-97206197D01*
X139049276Y-97206198D01*
X139043248Y-97208882D01*
X139037907Y-97212762D01*
X139037906Y-97212763D01*
X138999840Y-97240420D01*
X138888747Y-97321134D01*
X138884326Y-97326044D01*
X138884325Y-97326045D01*
X138810362Y-97408190D01*
X138760960Y-97463056D01*
X138665473Y-97628444D01*
X138606458Y-97810072D01*
X138605768Y-97816633D01*
X138605768Y-97816635D01*
X138598461Y-97886162D01*
X138586496Y-98000000D01*
X138587186Y-98006565D01*
X138605220Y-98178145D01*
X138606458Y-98189928D01*
X138665473Y-98371556D01*
X138668776Y-98377278D01*
X138668777Y-98377279D01*
X138703257Y-98437000D01*
X138719995Y-98505995D01*
X138703257Y-98563000D01*
X138686803Y-98591500D01*
X138665473Y-98628444D01*
X138606458Y-98810072D01*
X138605768Y-98816633D01*
X138605768Y-98816635D01*
X138592810Y-98939928D01*
X138586496Y-99000000D01*
X138587186Y-99006565D01*
X138594958Y-99080507D01*
X138606458Y-99189928D01*
X138615113Y-99216565D01*
X138617141Y-99287530D01*
X138580479Y-99348328D01*
X138516768Y-99379654D01*
X138507643Y-99380438D01*
X138507682Y-99380810D01*
X138501115Y-99381500D01*
X138494513Y-99381500D01*
X138488061Y-99382872D01*
X138488056Y-99382872D01*
X138401113Y-99401353D01*
X138307712Y-99421206D01*
X138301682Y-99423891D01*
X138301681Y-99423891D01*
X138139278Y-99496197D01*
X138139276Y-99496198D01*
X138133248Y-99498882D01*
X138127909Y-99502761D01*
X138127902Y-99502765D01*
X138121472Y-99507437D01*
X138047413Y-99531500D01*
X136051841Y-99531500D01*
X135983720Y-99511498D01*
X135937227Y-99457842D01*
X135927123Y-99387568D01*
X135958203Y-99321192D01*
X135989040Y-99286944D01*
X136084527Y-99121556D01*
X136143542Y-98939928D01*
X136144660Y-98929296D01*
X136160907Y-98774707D01*
X136187920Y-98709050D01*
X136197122Y-98698782D01*
X136377576Y-98518328D01*
X136439888Y-98484302D01*
X136499281Y-98485716D01*
X136525312Y-98492691D01*
X136525319Y-98492692D01*
X136530629Y-98494115D01*
X136750000Y-98513307D01*
X136969371Y-98494115D01*
X137182076Y-98437120D01*
X137381654Y-98344056D01*
X137531500Y-98239132D01*
X137557527Y-98220908D01*
X137557529Y-98220906D01*
X137562038Y-98217749D01*
X137717749Y-98062038D01*
X137721364Y-98056876D01*
X137840899Y-97886162D01*
X137840900Y-97886160D01*
X137844056Y-97881653D01*
X137846379Y-97876671D01*
X137846382Y-97876666D01*
X137901628Y-97758189D01*
X137937120Y-97682076D01*
X137994115Y-97469371D01*
X138013307Y-97250000D01*
X137994115Y-97030629D01*
X137937120Y-96817924D01*
X137880091Y-96695625D01*
X137846382Y-96623334D01*
X137846379Y-96623329D01*
X137844056Y-96618347D01*
X137812786Y-96573689D01*
X137720908Y-96442473D01*
X137720906Y-96442470D01*
X137717749Y-96437962D01*
X137562038Y-96282251D01*
X137537316Y-96264940D01*
X137482759Y-96226739D01*
X137381654Y-96155944D01*
X137182076Y-96062880D01*
X136969371Y-96005885D01*
X136750000Y-95986693D01*
X136530629Y-96005885D01*
X136317924Y-96062880D01*
X136254513Y-96092449D01*
X136123334Y-96153618D01*
X136123329Y-96153621D01*
X136118347Y-96155944D01*
X136113840Y-96159100D01*
X136113838Y-96159101D01*
X135942473Y-96279092D01*
X135942470Y-96279094D01*
X135937962Y-96282251D01*
X135782251Y-96437962D01*
X135779094Y-96442470D01*
X135779092Y-96442473D01*
X135687214Y-96573689D01*
X135655944Y-96618347D01*
X135653621Y-96623329D01*
X135653618Y-96623334D01*
X135613919Y-96708470D01*
X135567002Y-96761755D01*
X135498724Y-96781216D01*
X135430765Y-96760674D01*
X135385529Y-96708470D01*
X135345946Y-96623583D01*
X135340466Y-96614093D01*
X135311589Y-96572851D01*
X135301113Y-96564477D01*
X135287666Y-96571545D01*
X134646114Y-97213096D01*
X134583802Y-97247121D01*
X134557019Y-97250000D01*
X133942981Y-97250000D01*
X133874860Y-97229998D01*
X133853886Y-97213096D01*
X133211609Y-96570820D01*
X133199839Y-96564393D01*
X133187824Y-96573689D01*
X133159534Y-96614093D01*
X133154054Y-96623583D01*
X133114471Y-96708470D01*
X133067554Y-96761755D01*
X132999276Y-96781216D01*
X132931316Y-96760674D01*
X132886081Y-96708470D01*
X132846382Y-96623334D01*
X132846379Y-96623329D01*
X132844056Y-96618347D01*
X132812786Y-96573689D01*
X132720908Y-96442473D01*
X132720906Y-96442470D01*
X132717749Y-96437962D01*
X132562038Y-96282251D01*
X132537316Y-96264940D01*
X132482759Y-96226739D01*
X132442983Y-96198887D01*
X133564477Y-96198887D01*
X133571545Y-96212334D01*
X134237189Y-96877979D01*
X134251132Y-96885592D01*
X134252966Y-96885461D01*
X134259580Y-96881210D01*
X134929180Y-96211609D01*
X134935607Y-96199839D01*
X134926313Y-96187825D01*
X134885912Y-96159536D01*
X134876416Y-96154053D01*
X134686887Y-96065674D01*
X134676595Y-96061928D01*
X134474599Y-96007804D01*
X134463804Y-96005901D01*
X134255475Y-95987674D01*
X134244525Y-95987674D01*
X134036196Y-96005901D01*
X134025401Y-96007804D01*
X133823405Y-96061928D01*
X133813113Y-96065674D01*
X133623583Y-96154054D01*
X133614093Y-96159534D01*
X133572851Y-96188411D01*
X133564477Y-96198887D01*
X132442983Y-96198887D01*
X132381654Y-96155944D01*
X132182076Y-96062880D01*
X131969371Y-96005885D01*
X131750000Y-95986693D01*
X131530629Y-96005885D01*
X131317924Y-96062880D01*
X131254513Y-96092449D01*
X131123334Y-96153618D01*
X131123329Y-96153621D01*
X131118347Y-96155944D01*
X131113840Y-96159100D01*
X131113838Y-96159101D01*
X130942473Y-96279092D01*
X130942470Y-96279094D01*
X130937962Y-96282251D01*
X130782251Y-96437962D01*
X130779094Y-96442470D01*
X130779092Y-96442473D01*
X130687214Y-96573689D01*
X130655944Y-96618347D01*
X130653621Y-96623329D01*
X130653618Y-96623334D01*
X130614195Y-96707878D01*
X130567278Y-96761163D01*
X130499000Y-96780624D01*
X130431040Y-96760082D01*
X130385805Y-96707878D01*
X130346382Y-96623334D01*
X130346379Y-96623329D01*
X130344056Y-96618347D01*
X130312786Y-96573689D01*
X130220908Y-96442473D01*
X130220906Y-96442470D01*
X130217749Y-96437962D01*
X130062038Y-96282251D01*
X130037316Y-96264940D01*
X129982759Y-96226739D01*
X129881654Y-96155944D01*
X129682076Y-96062880D01*
X129469371Y-96005885D01*
X129250000Y-95986693D01*
X129030629Y-96005885D01*
X128817924Y-96062880D01*
X128754513Y-96092449D01*
X128623334Y-96153618D01*
X128623329Y-96153621D01*
X128618347Y-96155944D01*
X128613840Y-96159100D01*
X128613838Y-96159101D01*
X128442473Y-96279092D01*
X128442470Y-96279094D01*
X128437962Y-96282251D01*
X128282251Y-96437962D01*
X128279094Y-96442470D01*
X128279092Y-96442473D01*
X128187214Y-96573689D01*
X128155944Y-96618347D01*
X128153621Y-96623329D01*
X128153618Y-96623334D01*
X128119909Y-96695625D01*
X128062880Y-96817924D01*
X128005885Y-97030629D01*
X127986693Y-97250000D01*
X128005885Y-97469371D01*
X128062880Y-97682076D01*
X128098372Y-97758189D01*
X128153618Y-97876666D01*
X128153621Y-97876671D01*
X128155944Y-97881653D01*
X128159100Y-97886160D01*
X128159101Y-97886162D01*
X128278637Y-98056876D01*
X128282251Y-98062038D01*
X128437962Y-98217749D01*
X128442471Y-98220906D01*
X128442473Y-98220908D01*
X128468500Y-98239132D01*
X128618346Y-98344056D01*
X128817924Y-98437120D01*
X129030629Y-98494115D01*
X129250000Y-98513307D01*
X129469371Y-98494115D01*
X129474681Y-98492692D01*
X129474688Y-98492691D01*
X129500719Y-98485716D01*
X129571696Y-98487406D01*
X129622424Y-98518328D01*
X129802878Y-98698782D01*
X129836904Y-98761094D01*
X129839093Y-98774707D01*
X129855341Y-98929296D01*
X129856458Y-98939928D01*
X129915473Y-99121556D01*
X130010960Y-99286944D01*
X130041797Y-99321192D01*
X130072513Y-99385198D01*
X130063748Y-99455651D01*
X130018285Y-99510182D01*
X129948159Y-99531500D01*
X128406371Y-99531500D01*
X128338250Y-99511498D01*
X128317276Y-99494595D01*
X125936905Y-97114224D01*
X125902879Y-97051912D01*
X125900000Y-97025129D01*
X125900000Y-95052190D01*
X125920002Y-94984069D01*
X125936905Y-94963095D01*
X126529595Y-94370405D01*
X126591907Y-94336379D01*
X126618690Y-94333500D01*
X139352561Y-94333500D01*
X139420682Y-94353502D01*
G37*
G04 #@! TD.AperFunction*
M02*
