G04 #@! TF.GenerationSoftware,KiCad,Pcbnew,(6.0.7)*
G04 #@! TF.CreationDate,2023-03-12T22:24:00+09:00*
G04 #@! TF.ProjectId,flowing_dongle,666c6f77-696e-4675-9f64-6f6e676c652e,rev?*
G04 #@! TF.SameCoordinates,Original*
G04 #@! TF.FileFunction,Soldermask,Top*
G04 #@! TF.FilePolarity,Negative*
%FSLAX46Y46*%
G04 Gerber Fmt 4.6, Leading zero omitted, Abs format (unit mm)*
G04 Created by KiCad (PCBNEW (6.0.7)) date 2023-03-12 22:24:00*
%MOMM*%
%LPD*%
G01*
G04 APERTURE LIST*
G04 Aperture macros list*
%AMRoundRect*
0 Rectangle with rounded corners*
0 $1 Rounding radius*
0 $2 $3 $4 $5 $6 $7 $8 $9 X,Y pos of 4 corners*
0 Add a 4 corners polygon primitive as box body*
4,1,4,$2,$3,$4,$5,$6,$7,$8,$9,$2,$3,0*
0 Add four circle primitives for the rounded corners*
1,1,$1+$1,$2,$3*
1,1,$1+$1,$4,$5*
1,1,$1+$1,$6,$7*
1,1,$1+$1,$8,$9*
0 Add four rect primitives between the rounded corners*
20,1,$1+$1,$2,$3,$4,$5,0*
20,1,$1+$1,$4,$5,$6,$7,0*
20,1,$1+$1,$6,$7,$8,$9,0*
20,1,$1+$1,$8,$9,$2,$3,0*%
G04 Aperture macros list end*
%ADD10RoundRect,0.225000X-0.250000X0.225000X-0.250000X-0.225000X0.250000X-0.225000X0.250000X0.225000X0*%
%ADD11RoundRect,0.200000X-0.275000X0.200000X-0.275000X-0.200000X0.275000X-0.200000X0.275000X0.200000X0*%
%ADD12RoundRect,0.200000X0.275000X-0.200000X0.275000X0.200000X-0.275000X0.200000X-0.275000X-0.200000X0*%
%ADD13C,2.200000*%
%ADD14C,0.700000*%
%ADD15R,1.450000X0.600000*%
%ADD16R,1.450000X0.300000*%
%ADD17O,2.100000X1.050000*%
%ADD18R,1.690000X0.770000*%
%ADD19R,0.400000X1.200000*%
%ADD20RoundRect,0.218750X-0.256250X0.218750X-0.256250X-0.218750X0.256250X-0.218750X0.256250X0.218750X0*%
%ADD21R,1.400000X1.200000*%
G04 APERTURE END LIST*
D10*
X99500000Y-85725000D03*
X99500000Y-87275000D03*
D11*
X101000000Y-100675000D03*
X101000000Y-102325000D03*
D12*
X103500000Y-87325000D03*
X103500000Y-85675000D03*
D13*
X98500000Y-81000000D03*
X98500000Y-81000000D03*
D14*
X100650000Y-90610000D03*
X100650000Y-96390000D03*
D15*
X102095000Y-90250000D03*
X102095000Y-91050000D03*
D16*
X102095000Y-92250000D03*
X102095000Y-93250000D03*
X102095000Y-93750000D03*
X102095000Y-94750000D03*
D15*
X102095000Y-96750000D03*
X102095000Y-95950000D03*
D16*
X102095000Y-95250000D03*
X102095000Y-94250000D03*
X102095000Y-92750000D03*
X102095000Y-91750000D03*
D17*
X101180000Y-89180000D03*
X101180000Y-97820000D03*
X97000000Y-89180000D03*
X97000000Y-97820000D03*
D10*
X99000000Y-100725000D03*
X99000000Y-102275000D03*
D18*
X160360000Y-101010000D03*
X160360000Y-99910000D03*
X160360000Y-98810000D03*
X160360000Y-97710000D03*
X160360000Y-96610000D03*
X160360000Y-95510000D03*
X160360000Y-94410000D03*
X160360000Y-93310000D03*
X160360000Y-92210000D03*
X160360000Y-91110000D03*
X160360000Y-90010000D03*
X160360000Y-88910000D03*
X160360000Y-87810000D03*
X160360000Y-86710000D03*
X143640000Y-86710000D03*
X143640000Y-87810000D03*
X143640000Y-88910000D03*
X143640000Y-90010000D03*
X143640000Y-91110000D03*
X143640000Y-92210000D03*
X143640000Y-93310000D03*
X143640000Y-94410000D03*
X143640000Y-95510000D03*
X143640000Y-96610000D03*
X143640000Y-97710000D03*
X143640000Y-98810000D03*
X143640000Y-99910000D03*
X143640000Y-101010000D03*
D13*
X98500000Y-106000000D03*
D18*
X162640000Y-85990000D03*
X162640000Y-87090000D03*
X162640000Y-88190000D03*
X162640000Y-89290000D03*
X162640000Y-90390000D03*
X162640000Y-91490000D03*
X162640000Y-92590000D03*
X162640000Y-93690000D03*
X162640000Y-94790000D03*
X162640000Y-95890000D03*
X162640000Y-96990000D03*
X162640000Y-98090000D03*
X162640000Y-99190000D03*
X162640000Y-100290000D03*
X179360000Y-100290000D03*
X179360000Y-99190000D03*
X179360000Y-98090000D03*
X179360000Y-96990000D03*
X179360000Y-95890000D03*
X179360000Y-94790000D03*
X179360000Y-93690000D03*
X179360000Y-92590000D03*
X179360000Y-91490000D03*
X179360000Y-90390000D03*
X179360000Y-89290000D03*
X179360000Y-88190000D03*
X179360000Y-87090000D03*
X179360000Y-85990000D03*
D19*
X110627500Y-78900000D03*
X109992500Y-78900000D03*
X109357500Y-78900000D03*
X108722500Y-78900000D03*
X108087500Y-78900000D03*
X107452500Y-78900000D03*
X106817500Y-78900000D03*
X106182500Y-78900000D03*
X105547500Y-78900000D03*
X104912500Y-78900000D03*
X104277500Y-78900000D03*
X103642500Y-78900000D03*
X103007500Y-78900000D03*
X102372500Y-78900000D03*
X102372500Y-84100000D03*
X103007500Y-84100000D03*
X103642500Y-84100000D03*
X104277500Y-84100000D03*
X104912500Y-84100000D03*
X105547500Y-84100000D03*
X106182500Y-84100000D03*
X106817500Y-84100000D03*
X107452500Y-84100000D03*
X108087500Y-84100000D03*
X108722500Y-84100000D03*
X109357500Y-84100000D03*
X109992500Y-84100000D03*
X110627500Y-84100000D03*
D13*
X182000000Y-106000000D03*
D18*
X124640000Y-85990000D03*
X124640000Y-87090000D03*
X124640000Y-88190000D03*
X124640000Y-89290000D03*
X124640000Y-90390000D03*
X124640000Y-91490000D03*
X124640000Y-92590000D03*
X124640000Y-93690000D03*
X124640000Y-94790000D03*
X124640000Y-95890000D03*
X124640000Y-96990000D03*
X124640000Y-98090000D03*
X124640000Y-99190000D03*
X124640000Y-100290000D03*
X141360000Y-100290000D03*
X141360000Y-99190000D03*
X141360000Y-98090000D03*
X141360000Y-96990000D03*
X141360000Y-95890000D03*
X141360000Y-94790000D03*
X141360000Y-93690000D03*
X141360000Y-92590000D03*
X141360000Y-91490000D03*
X141360000Y-90390000D03*
X141360000Y-89290000D03*
X141360000Y-88190000D03*
X141360000Y-87090000D03*
X141360000Y-85990000D03*
X122360000Y-101010000D03*
X122360000Y-99910000D03*
X122360000Y-98810000D03*
X122360000Y-97710000D03*
X122360000Y-96610000D03*
X122360000Y-95510000D03*
X122360000Y-94410000D03*
X122360000Y-93310000D03*
X122360000Y-92210000D03*
X122360000Y-91110000D03*
X122360000Y-90010000D03*
X122360000Y-88910000D03*
X122360000Y-87810000D03*
X122360000Y-86710000D03*
X105640000Y-86710000D03*
X105640000Y-87810000D03*
X105640000Y-88910000D03*
X105640000Y-90010000D03*
X105640000Y-91110000D03*
X105640000Y-92210000D03*
X105640000Y-93310000D03*
X105640000Y-94410000D03*
X105640000Y-95510000D03*
X105640000Y-96610000D03*
X105640000Y-97710000D03*
X105640000Y-98810000D03*
X105640000Y-99910000D03*
X105640000Y-101010000D03*
D20*
X103000000Y-100712500D03*
X103000000Y-102287500D03*
D12*
X97500000Y-87325000D03*
X97500000Y-85675000D03*
D13*
X182000000Y-81000000D03*
D12*
X97000000Y-102325000D03*
X97000000Y-100675000D03*
D21*
X115600000Y-82150000D03*
X113400000Y-82150000D03*
X113400000Y-83850000D03*
X115600000Y-83850000D03*
D10*
X101500000Y-85725000D03*
X101500000Y-87275000D03*
M02*
