M48
; DRILL file {KiCad (6.0.7)} date Sun Mar 12 22:24:45 2023
; FORMAT={-:-/ absolute / inch / decimal}
; #@! TF.CreationDate,2023-03-12T22:24:45+09:00
; #@! TF.GenerationSoftware,Kicad,Pcbnew,(6.0.7)
; #@! TF.FileFunction,Plated,1,2,PTH
FMAT,2
INCH
; #@! TA.AperFunction,Plated,PTH,ViaDrill
T1C0.0157
; #@! TA.AperFunction,Plated,PTH,ComponentDrill
T2C0.0256
%
G90
G05
T1
X3.7992Y-3.2756
X3.8189Y-3.5728
X3.8189Y-3.7894
X3.8189Y-3.9173
X3.8386Y-3.3268
X3.8583Y-3.9961
X3.9075Y-3.8898
X3.9094Y-3.4843
X3.9173Y-3.1102
X3.9173Y-3.3268
X3.937Y-3.6811
X3.937Y-3.7205
X3.937Y-3.7598
X3.9469Y-3.622
X3.9587Y-3.1372
X3.9764Y-3.9173
X3.9961Y-3.1496
X3.9961Y-3.3268
X4.0246Y-3.248
X4.0354Y-3.189
X4.0639Y-3.248
X4.0699Y-3.6319
X4.0748Y-3.7598
X4.0945Y-3.1895
X4.0945Y-3.9173
X4.1023Y-3.4832
X4.1339Y-3.189
X4.1535Y-3.2283
X4.1929Y-3.2283
X4.2126Y-3.189
X4.2323Y-3.4154
X4.2323Y-3.4646
X4.2323Y-3.5039
X4.2323Y-3.7894
X4.2323Y-3.9272
X4.252Y-3.189
X4.2717Y-3.2283
X4.311Y-3.2283
X4.311Y-3.6024
X4.3504Y-3.248
X4.3803Y-3.1493
X4.3996Y-3.3071
X4.3996Y-3.8878
X4.4587Y-3.8878
X4.5177Y-3.8878
X4.5551Y-3.4528
X4.5768Y-3.8878
X4.6063Y-3.3661
X4.7402Y-3.8976
X4.7539Y-3.4547
X4.8327Y-3.3661
X4.9114Y-3.9961
X4.9803Y-3.3661
X4.9803Y-3.7795
X5.0886Y-3.8976
X5.1476Y-3.8878
X5.2067Y-3.8878
X5.2653Y-3.8873
X5.3248Y-3.8878
X5.3839Y-3.8976
X5.4563Y-3.9484
X5.4823Y-3.6417
X5.4921Y-3.3661
X5.4921Y-3.8091
X5.4921Y-3.8583
X5.4921Y-3.8976
X5.5709Y-3.9961
X5.6496Y-3.3661
X5.7244Y-3.6614
X5.7283Y-3.7992
X5.7283Y-3.9961
X5.7677Y-3.5728
X5.7677Y-3.6122
X5.8169Y-3.7205
X5.8661Y-3.5925
X5.8957Y-3.8878
X5.9547Y-3.8878
X6.0138Y-3.8878
X6.0728Y-3.8878
X6.1417Y-3.8976
X6.2402Y-3.9961
X6.25Y-3.4547
X6.3287Y-3.3661
X6.3976Y-3.9961
X6.4764Y-3.3661
X6.4764Y-3.8976
X6.5846Y-3.8976
X6.6437Y-3.8878
X6.7028Y-3.8878
X6.7618Y-3.8878
X6.8209Y-3.8878
X6.8307Y-3.5531
X6.8799Y-3.8976
X6.8858Y-3.9488
X6.9783Y-3.7008
X6.9872Y-3.8583
X6.9872Y-3.8976
X6.9882Y-3.3661
X6.998Y-3.5827
X7.0571Y-3.9961
X7.1358Y-3.3661
X7.2441Y-3.3661
X7.2441Y-3.6713
X7.2441Y-3.9961
T2
G00X3.8307Y-3.511
M15
G01X3.8071Y-3.511
M16
G05
G00X3.8307Y-3.8512
M15
G01X3.8071Y-3.8512
M16
G05
G00X4.0051Y-3.511
M15
G01X3.9618Y-3.511
M16
G05
G00X4.0051Y-3.8512
M15
G01X3.9618Y-3.8512
M16
G05
T0
M30
